<svg xmlns="http://www.w3.org/2000/svg" width="160" height="160" viewBox="0 0 160 160" role="img" aria-label="Ema SIDH">
  <circle cx="82" cy="82" r="70" fill="#f7f7f7"/>
  <circle cx="78" cy="78" r="68" fill="#ffffff" stroke="#222222" stroke-width="3"/>
  <g transform="translate(78 78)">
    <path d="M0-44 10-12 44 0 10 12 0 44-10 12-44 0-10-12Z" fill="#f4b400" opacity="0.9"/>
    <path d="M0-36 8-10 36 0 8 10 0 36-8 10-36 0-8-10Z" fill="#2e7d32" opacity="0.85" transform="rotate(24)"/>
    <path d="M0-34 7-9 34 0 7 9 0 34-7 9-34 0-7-9Z" fill="#1351b4" opacity="0.85" transform="rotate(48)"/>
    <path d="M0-30 6-8 30 0 6 8 0 30-6 8-30 0-6-8Z" fill="#d32f2f" opacity="0.82" transform="rotate(72)"/>
    <circle cx="0" cy="0" r="17" fill="#ffffff" stroke="#1351b4" stroke-width="4"/>
  </g>
  <text x="78" y="132" text-anchor="middle" font-family="Arial, Helvetica, sans-serif" font-size="19" font-weight="700" fill="#1351b4">EMA - SIDH</text>
</svg>