<svg xmlns="http://www.w3.org/2000/svg" viewBox="0 0 620 592" fill="none">
  <defs>
    <linearGradient id="mapFill" x1="90" y1="54" x2="474" y2="552" gradientUnits="userSpaceOnUse">
      <stop offset="0" stop-color="#d73797"/>
      <stop offset="0.54" stop-color="#a334c8"/>
      <stop offset="1" stop-color="#6937f2"/>
    </linearGradient>
    <radialGradient id="mapGlow" cx="0" cy="0" r="1" gradientUnits="userSpaceOnUse" gradientTransform="translate(282 198) rotate(68.16) scale(336.979 371.958)">
      <stop offset="0" stop-color="#ffffff" stop-opacity="0.24"/>
      <stop offset="1" stop-color="#ffffff" stop-opacity="0"/>
    </radialGradient>
    <filter id="shadow" x="0" y="0" width="620" height="592" color-interpolation-filters="sRGB">
      <feDropShadow dx="-18" dy="20" stdDeviation="20" flood-color="#332043" flood-opacity="0.2"/>
    </filter>
    <clipPath id="brazilClip">
      <path d="M38 206L68 148L80 90L112 58L174 16L232 24L286 54L416 22L438 46L466 132L540 148L540 170L520 180L510 222L518 306L446 388L430 420L364 538L330 586L246 572L186 372L166 262L96 204Z"/>
    </clipPath>
  </defs>

  <g filter="url(#shadow)">
    <path d="M38 206L68 148L80 90L112 58L174 16L232 24L286 54L416 22L438 46L466 132L540 148L540 170L520 180L510 222L518 306L446 388L430 420L364 538L330 586L246 572L186 372L166 262L96 204Z" fill="url(#mapFill)"/>
    <path d="M38 206L68 148L80 90L112 58L174 16L232 24L286 54L416 22L438 46L466 132L540 148L540 170L520 180L510 222L518 306L446 388L430 420L364 538L330 586L246 572L186 372L166 262L96 204Z" fill="url(#mapGlow)"/>
    <path d="M38 206L68 148L80 90L112 58L174 16L232 24L286 54L416 22L438 46L466 132L540 148L540 170L520 180L510 222L518 306L446 388L430 420L364 538L330 586L246 572L186 372L166 262L96 204Z" stroke="#532172" stroke-width="4" stroke-linejoin="round"/>

    <g clip-path="url(#brazilClip)" stroke="#ffffff" stroke-opacity="0.18" stroke-width="2.4" stroke-linejoin="round" stroke-linecap="round">
      <polygon points="140,34 176,14 220,28 208,74 168,78 148,60"/>
      <polygon points="372,24 414,20 432,48 418,76 384,80 368,52"/>
      <polygon points="74,80 112,56 152,60 184,86 176,148 140,164 98,150 70,120 64,94"/>
      <polygon points="182,84 228,62 286,58 356,62 400,82 390,132 338,146 300,140 274,178 214,160 182,128"/>
      <polygon points="390,130 426,134 446,164 426,194 388,188 372,160"/>
      <polygon points="430,132 470,132 494,148 486,182 456,190 434,170"/>
      <polygon points="492,136 524,140 542,150 536,170 512,178 492,162"/>
      <polygon points="36,184 68,176 104,184 108,214 80,228 44,224 28,202"/>
      <polygon points="102,172 146,172 178,190 170,226 138,238 104,228 94,198"/>
      <polygon points="254,172 302,172 322,190 316,234 286,248 252,228 246,196"/>
      <polygon points="364,176 402,176 422,194 416,228 388,240 360,222 358,194"/>
      <polygon points="474,180 510,180 522,198 518,222 492,232 472,214"/>
      <polygon points="176,212 246,212 282,236 280,292 246,314 188,304 166,262"/>
      <polygon points="350,224 418,224 452,250 450,314 420,342 376,330 348,284"/>
      <polygon points="424,224 466,224 486,244 480,278 446,290 424,270"/>
      <polygon points="254,274 308,272 326,296 322,334 292,344 256,332 244,302"/>
      <polygon points="329,298 347,298 350,314 334,318 324,306"/>
      <polygon points="430,286 458,286 468,308 458,326 434,324 424,306"/>
      <polygon points="478,286 508,288 518,308 508,324 486,326 474,308"/>
      <polygon points="188,314 244,314 262,344 254,396 214,404 186,372 178,334"/>
      <polygon points="290,330 376,330 418,350 414,398 372,418 324,412 286,384 284,346"/>
      <polygon points="418,340 440,350 444,390 426,402 412,386 412,352"/>
      <polygon points="294,398 374,398 394,422 382,458 338,470 302,452 286,422"/>
      <polygon points="376,398 416,398 428,420 416,438 394,444 374,424"/>
      <polygon points="312,454 364,454 372,492 344,514 314,506 302,480"/>
      <polygon points="316,506 360,506 364,536 346,554 322,548 310,528"/>
      <polygon points="254,552 316,552 330,584 292,590 252,582 242,570"/>
    </g>
  </g>
</svg>