<svg xmlns="http://www.w3.org/2000/svg" viewBox="0 0 620 592" fill="none" role="img" aria-labelledby="map-title map-desc">
  <title id="map-title">Mapa do Brasil por unidades da federacao</title>
  <desc id="map-desc">Mapa simplificado gerado a partir da malha territorial de unidades da federacao do IBGE.</desc>
  <defs>
    <linearGradient id="mapFill" x1="105" y1="54" x2="468" y2="548" gradientUnits="userSpaceOnUse">
      <stop offset="0" stop-color="#009739"/>
      <stop offset="0.52" stop-color="#ffdf00"/>
      <stop offset="1" stop-color="#002776"/>
    </linearGradient>
    <radialGradient id="mapGlow" cx="0" cy="0" r="1" gradientUnits="userSpaceOnUse" gradientTransform="translate(284 184) rotate(68) scale(316 348)">
      <stop offset="0" stop-color="#ffffff" stop-opacity="0.24"/>
      <stop offset="1" stop-color="#ffffff" stop-opacity="0"/>
    </radialGradient>
    <filter id="shadow" x="0" y="0" width="620" height="592" color-interpolation-filters="sRGB">
      <feDropShadow dx="-12" dy="18" stdDeviation="16" flood-color="#052e1a" flood-opacity="0.2"/>
    </filter>
  </defs>
  <g filter="url(#shadow)">
    <g fill="url(#mapFill)" stroke="#ffffff" stroke-opacity="0.62" stroke-width="1.35" stroke-linejoin="round" stroke-linecap="round">
    <path id="uf-AC" d="M134.9 233.4 L132.3 232.2 L132.3 232.2 L129.7 231.8 L123.4 228.9 L120 227.4 L114.2 224.7 L110.4 221.5 L106.4 218.1 L103.2 215.4 L98.3 211.2 L94.8 208.2 L88.5 207.5 L80.6 206.6 L76.6 206.1 L68.9 205.2 L65.8 204.8 L60.1 204.2 L55.7 202.6 L44.2 198.4 L43.4 198.1 L44.8 200.7 L42.3 201.8 L41.1 201.5 L41.7 203 L40.9 204.4 L43.1 206.4 L44.8 207.2 L44.7 208.6 L43.8 208.4 L44.4 209.9 L45.7 211.1 L47 215.1 L49.8 216.9 L49.7 218.6 L52.6 220.9 L53.6 222.8 L54.4 223 L55.2 225 L53 228.2 L51.5 229.7 L58.2 229.7 L61 230.8 L63.4 231.1 L64.6 232.6 L64.4 234.3 L66 235 L65.6 237.8 L76.7 237.8 L79 237.3 L80.8 235.4 L81.9 235.3 L83.7 233.2 L84.6 232.9 L87.8 230 L88.6 229.9 L87.4 232.4 L88.4 233.9 L87.1 235.5 L87.1 238.9 L87.1 243.6 L87.1 247.5 L87.1 251.5 L88.3 250.6 L89.8 252.1 L91.4 252.5 L93.4 252.1 L96.5 250.5 L99.2 251.2 L103.5 250.5 L106.1 250.7 L110.5 251.8 L112.8 251.8 L113.2 253.5 L115.6 253.1 L117.7 252.1 L119.8 251 L123 246.7 L124.9 246.6 L127.1 247.4 L129 244.8 L132.5 243 L132.5 242.2 L134.4 242.5 L136.8 241 L138.2 239.3 L141.9 236.4 L139.4 235.3 Z"><title>AC</title></path>
    <path id="uf-AL" d="M535 226.2 L533.9 226.4 L533.1 227.5 L531.9 228.6 L532.3 228.9 L532.4 229.8 L534.1 230.1 L535.2 231.1 L536.7 231.5 L537.4 232 L539.8 233.2 L539.9 233.4 L542.5 234.3 L544.9 235.5 L545.8 236.4 L547.1 236.6 L549.6 238.1 L549.7 238.8 L549.7 238.8 L550.1 239.5 L550.6 239.8 L551 240.3 L551.1 240.4 L552.8 241.4 L553 241.5 L553.3 241.5 L554 241.3 L554.6 241.9 L555 243.5 L556 243.6 L556 243.6 L557.2 244.6 L558.5 242.5 L559.1 241.4 L562.3 238.5 L563.2 237 L564 235.8 L564.7 234.9 L565.6 233.8 L566.5 233.5 L568.7 230.8 L569.2 230.1 L569.9 229 L571.1 228 L571.8 227.2 L572.4 226.2 L573.1 225 L574.3 222.9 L573.2 222.5 L571.6 222.2 L570.8 221.8 L569 221.6 L568.6 221.9 L568.4 222 L567.5 222.4 L566.5 222.8 L565.1 222.3 L564.8 222.3 L563.4 222.6 L562.8 222.7 L562.2 222.8 L560.9 223.5 L561.2 224.3 L561 224.5 L560 224.7 L558.7 226.5 L557.8 227.1 L557.1 227.1 L555.8 227.7 L554.1 228.6 L553.1 228.1 L551.7 227.9 L550.6 227.9 L549.8 229.3 L549.2 229 L548.2 228.3 L548.2 228.4 L546.6 227.7 L546.2 227 L545.8 227.2 L545.1 226.2 L543.5 224.5 L541.8 223.6 L541.7 223.6 L540.2 224.1 L539.3 223.2 L538.6 222 L537.6 223.1 L535.9 225.4 Z"><title>AL</title></path>
    <path id="uf-AM" d="M258.4 201.3 L258 199.1 L255.8 196.4 L254.5 195.3 L253.8 193.6 L254.6 191.3 L256.8 189.4 L262.4 177.4 L269.4 162.3 L274.8 150.7 L275.4 149.4 L276.8 146.2 L277.4 145 L282.4 134.2 L281.5 133.8 L282.6 131.7 L285.1 130.4 L286.6 128.3 L284.8 128.7 L282.2 130.3 L280.7 129.8 L279.9 130.3 L278.6 130.8 L277.5 130.3 L277.6 128.1 L276.1 128.1 L273.8 126.8 L273.1 124.9 L270.6 123.7 L269.3 124.3 L266.1 122.1 L264.9 122.3 L264.4 121.1 L261 119.6 L260.5 118.7 L260.9 116.5 L260 115.5 L258.3 117.4 L256.9 116 L256.1 116.2 L254.6 114.6 L254.5 112.7 L251.3 110.3 L250.3 108.8 L250.5 106.5 L248.5 105.2 L248.6 101.5 L248.2 100.6 L248.1 96.8 L243.1 96.8 L240.8 96.8 L232.4 96.8 L229.8 102.1 L227.6 108 L228.7 110.3 L226.1 111.1 L225.6 112.4 L223.8 112.6 L222.5 112.1 L221.8 109.9 L220.1 108 L216.2 107.3 L216 108.1 L212.9 109.4 L211.9 110.8 L211.3 113.9 L211.8 115 L210.6 118.3 L210.7 119.6 L211.8 120.1 L212.7 122.1 L210.9 120.3 L208.3 119.4 L207.7 119.7 L206.9 119.6 L205.3 116.1 L203.8 114.7 L201.9 113.8 L200.1 111.7 L198.5 110.9 L198.8 109.8 L200.6 110.1 L201.6 109.1 L201.1 107.9 L202.9 104.9 L202.1 104.5 L202.2 102.8 L201.1 101.7 L201 100.5 L199.9 99.4 L199.3 97.6 L199.4 95.2 L198.4 94.3 L198.1 91.1 L199.1 89.8 L199.4 87.3 L199 85.5 L198.3 85.5 L196.7 80.7 L195.4 79.4 L194.4 78.6 L195.5 77.1 L195.8 73.9 L194 72.7 L191.4 72.7 L189.9 70.7 L188 70.8 L186.6 70 L186.3 70.9 L184 71.1 L180.4 73.4 L178.4 73.1 L177.2 73.9 L177.1 77.4 L173.5 80.7 L172.5 81.3 L172.6 79.4 L170.4 81 L169.9 82.1 L167.5 83.5 L166.7 82.9 L164.9 83.5 L164 85.1 L162.1 85 L162 87.4 L159.8 87.6 L158.2 90.9 L156.9 91.5 L156.2 90.5 L157.4 88.9 L156.2 86.6 L154.1 86.7 L151.6 88.2 L151 89.3 L148.5 90.2 L147.6 89.7 L146.2 90.3 L146.2 90.1 L138.8 83.5 L135.6 84.4 L135.8 80.6 L135.5 76.6 L134.6 75 L133 74.7 L131.5 69.6 L129.6 70.6 L128.3 72.6 L126.1 72.5 L123.9 75.3 L121.9 74.3 L121.1 73.2 L119.7 74 L119.4 75.3 L120.9 76.6 L104 76.7 L102 76 L100.3 76.8 L97.7 77 L97.7 85.6 L99.7 85.1 L99.7 85.7 L104.9 85.5 L106 86 L107.4 88.3 L106.8 90.2 L107.7 91.6 L104.5 92 L102.7 90.3 L100.7 91.8 L99.9 91.3 L98 92.3 L95 92.7 L95 99.5 L94.8 103 L96.6 105 L97.7 105.2 L100.9 107.5 L101.6 109.2 L100.7 110.7 L102.1 113.1 L103.5 114.2 L103.9 116.1 L103.4 119.5 L100.9 133.9 L97.8 151.1 L96.3 159.1 L95 160.5 L93.8 159.3 L92.8 160.3 L91.4 158.8 L91.6 157.6 L88.4 157.3 L87.1 158 L85.2 157.6 L83.7 158.9 L82.7 160.6 L78.2 160.7 L78.3 161.2 L75 161.4 L73.4 162.6 L71.2 162 L69.3 162.7 L68.8 163.7 L64.8 166.1 L63 166.5 L62.4 167.8 L59.9 168.9 L55.9 171.3 L56.2 173.2 L54.9 176 L54.9 178.1 L52.3 181 L50.9 184.8 L52.9 188.5 L51.4 190.8 L49.5 191 L45.5 193.3 L44 195.8 L44.4 196.9 L43.4 198.1 L44.2 198.4 L55.7 202.6 L60.1 204.2 L65.8 204.8 L68.9 205.2 L76.6 206.1 L80.6 206.6 L88.5 207.5 L94.8 208.2 L98.3 211.2 L103.2 215.4 L106.4 218.1 L110.4 221.5 L114.2 224.7 L120 227.4 L123.4 228.9 L129.7 231.8 L132.3 232.2 L132.3 232.2 L134.9 233.4 L139.4 235.3 L142.2 233.2 L143.7 232.8 L145.2 230.9 L144.9 229.7 L148.2 230 L151 229.7 L152.9 231.3 L154.3 231.8 L154.9 230.3 L156.2 229.8 L158.3 230.4 L158.2 228.3 L158.9 228.7 L160.6 227.7 L161.4 227.9 L162.3 230.2 L163.5 229.6 L165.4 227.1 L165.1 225.8 L166.9 223.9 L169.6 224.3 L170.1 223.9 L173.6 223.1 L173.7 224 L176.1 223.3 L176.1 220.5 L177.5 219.9 L179.1 218 L178.4 216.9 L178.8 214.9 L179.8 214.3 L180.9 214.9 L181.5 213.2 L183.2 210.7 L183.2 210 L193.6 210 L196 211.6 L196.5 213.5 L197.8 214.2 L198.4 215.6 L199.1 215 L200.5 215.8 L200.5 217.1 L201.5 219.1 L201.8 218.2 L202.9 218.4 L203.8 221.3 L205.1 221.3 L205.6 222.3 L206.8 222.2 L207.7 220.4 L209.4 219.8 L211.2 221.3 L227.2 221.3 L245 221.4 L254.4 221.3 L255.9 220.1 L254.4 220 L255.1 218.5 L254.7 217.1 L256.1 214.8 L256.5 211.5 L255.3 208 L256.4 207.2 L257.7 205.1 L257.5 202.9 L258.6 201.5 Z"><title>AM</title></path>
    <path id="uf-AP" d="M361 71 L359.4 66.1 L359 65.9 L358.2 62.7 L357.2 61.4 L356.2 56.3 L355.1 53 L355.5 51.5 L355.5 47.1 L354.5 46.7 L353.6 43.4 L352.7 42 L349.9 39.5 L347.9 38.5 L347.3 40.9 L348.1 42.4 L347.6 44.7 L345.9 46 L345.6 47 L343.3 49.5 L343 50.6 L339.7 55.9 L338 57.5 L338.4 58.1 L336.3 62.2 L335.3 65.8 L333.8 67.8 L331.3 68.9 L330.5 70.4 L328 70 L325.3 70.4 L326 69.3 L324.7 68.2 L322.6 69.4 L318.9 68.7 L318.6 67.7 L316.2 69.6 L312.8 70.5 L309.4 70.1 L307.1 68.3 L305.9 68 L305.2 66.5 L303.4 67 L304.9 70.2 L304.3 72.4 L305 73.3 L305.2 76 L307.1 75.9 L308.6 76.4 L310.2 76.2 L313.7 78.3 L314.2 79.9 L316.8 80.4 L316.9 81.1 L321.8 82.3 L321.9 83.8 L323.2 83.5 L322.8 84.8 L323.5 87.7 L327.7 91.1 L327.1 92.2 L326.7 95.2 L327.8 97.7 L329.4 100 L330.1 102.4 L333.5 104.7 L333.3 107.2 L334.1 108.5 L335.5 108.3 L336 110.2 L335.9 112.2 L336.6 111.8 L337.1 114.9 L338.3 115.8 L341.2 116.2 L341.4 117.1 L343.3 115.9 L344.4 116.4 L345.9 116.1 L347 115 L347.2 111.4 L348.4 109.4 L350.7 106.9 L351.8 104.5 L353.8 102 L355 101.8 L357 99.9 L360.1 98.6 L361.5 97.6 L362.1 97 L364.7 91.9 L367.2 90.9 L370.5 88.4 L370.5 87.5 L371.9 86.5 L371.7 83.4 L372 79.8 L371.4 77.2 L368.2 75.5 L364.5 75.6 Z M363.4 70.4 L363.4 71.6 L364.5 71.3 Z M364.2 71.4 L363.2 72.9 L364.1 74.5 L366 73.7 L365.4 72.2 Z"><title>AP</title></path>
    <path id="uf-BA" d="M516.6 217.9 L514.9 218.5 L512.6 219.4 L512.2 221.1 L509.2 221.7 L509.5 223.2 L508 224.8 L507.7 224.9 L505.9 225.6 L504.9 224.9 L504 225.2 L502.8 229.2 L502 228.9 L499.2 230.7 L497.9 230.2 L497.2 230.2 L498.5 226.6 L496.5 225.2 L496 223.4 L494.6 221.9 L492.6 221 L492.4 220 L490.2 220.4 L489.1 220 L488.8 220 L488.3 221 L486.5 223.3 L484.1 224.3 L483.9 225.3 L482.3 227.4 L481.4 227.9 L479.3 227.6 L477.1 228 L475.9 228.4 L473.5 230.9 L472 231.2 L470.8 231.6 L469.7 232.6 L467.2 231.1 L467.1 230 L465.7 229.5 L465.5 229.6 L463.5 229.6 L462.6 229.8 L460.5 227.7 L459.1 228.3 L458.2 228.9 L455.8 230.3 L455.7 230.4 L454.8 231.6 L455.7 234.5 L457.6 235.7 L456.8 236.7 L457 238.6 L456.1 238.8 L455 242 L453.9 243.2 L452.9 243.5 L451.6 245.9 L450.5 246.6 L448 245.4 L445.9 246.7 L444.8 246.4 L443.6 247.2 L443.6 248.2 L440.9 250 L439.8 250.4 L437.9 249.3 L435.7 249.1 L433.3 246.7 L432.9 244.8 L433.6 243.9 L432.3 241.9 L431.4 240.8 L430.8 239.3 L429.1 239.9 L429.4 241.4 L428.1 242.2 L427.8 244.1 L423.6 246.3 L422.5 248.8 L421.7 249 L421.6 250.6 L420.6 250.7 L417.7 255.2 L417.6 256.6 L419.3 258.7 L420.5 258.5 L423.8 259.9 L424.2 260.1 L423.3 260.1 L420.3 260.2 L421.1 261 L420.1 261.8 L420.7 262.7 L420.1 263.4 L421 264.5 L420 266 L420.2 266.7 L420.2 270.1 L421.3 270.5 L421.6 272.2 L422.6 272.2 L422.6 272.2 L421.2 273.2 L421.4 275.8 L420.8 278.4 L423.8 277.9 L421.2 279.9 L420.8 282.5 L421.3 283.4 L423.9 282.6 L424.4 283.1 L421.9 285 L422.4 285.4 L421.9 287 L423.1 287.3 L422.1 288.7 L421.7 292 L422.4 292.9 L422.2 293.4 L422.8 294.9 L424.5 295.9 L426.6 297.6 L425.3 298.9 L425.5 301.8 L425 302 L425 302.1 L424.8 304.8 L424.8 304.8 L425.8 306 L424.2 310.1 L425.7 308.6 L428.9 308.1 L430.6 306.7 L434.8 304.2 L436.2 303 L437.7 303.1 L438.5 302.1 L440.7 301 L441.3 299.6 L442.6 299.2 L445.1 297.4 L447.1 296.6 L448.7 296.2 L452.2 296.7 L453.2 296.5 L455.8 297.4 L455.3 298.1 L454.4 300.5 L454.4 301.7 L456.7 302.6 L459.2 304 L459.2 304 L459.8 303.6 L462.2 302 L464.1 301.7 L467.4 302.5 L468.3 303.3 L471.8 305.7 L473.2 306.3 L473.7 306.7 L476.4 308.1 L476.6 308.2 L477.9 307.7 L479.6 308.8 L480.9 308.9 L482.9 307.9 L483 307.9 L483.6 308.4 L487.7 312.1 L489 313.3 L489 313.3 L489.3 315.3 L489.5 316.7 L492 317.1 L496.5 315.4 L497.2 316.3 L498.1 315.7 L498.9 316.5 L500.6 317.5 L501.5 317 L501.9 317.6 L504.5 317.5 L506 319 L507.7 320.3 L508.9 320.2 L509.7 321.8 L508.9 324.1 L507.5 325 L506.2 326.4 L505.6 328.2 L503.9 328.1 L503.4 329.6 L503.5 329.8 L503.9 332.6 L502.2 332.5 L502.1 332.6 L501.8 332.4 L501 332.4 L499.8 336 L500.2 337.9 L499.4 338.9 L500.6 340.1 L501.1 340.7 L502 342.4 L503 342.4 L504.4 344.1 L504.7 344.1 L504.8 346.3 L504.7 347.4 L504.7 347.5 L508.9 350.2 L512.3 352.3 L512.7 350.9 L514.7 347.7 L517.9 345.3 L519.6 343.4 L518.8 340.1 L518.6 336.2 L519.9 332.5 L519.5 330.7 L520 329.8 L520.6 326.2 L521.3 325 L521.3 323.6 L522.2 321.5 L523.5 318.2 L522.9 317 L522.4 315.6 L521.8 311.8 L521.5 307.7 L521.1 303.5 L520.6 303 L521 299.8 L521.2 298.5 L521.6 295.7 L522.4 291.5 L522.1 291 L521.9 290.7 L521.9 290.6 L521.6 288.9 L521.9 288.3 L523 287.8 L522.4 286.5 L522.9 285.3 L522.1 284.4 L522.6 282 L524.3 280.9 L526.4 279.2 L527.2 279.2 L528.8 279.2 L531 277.8 L531.4 277.4 L534.8 273.5 L536.7 270.9 L538.4 268.6 L539.5 266.6 L541.9 261.7 L544.3 257.6 L543.9 257.8 L541 259.1 L540.3 258.7 L539.7 259.4 L538 258.7 L537.5 258.2 L535.5 256.3 L535.3 256.3 L535.5 254.3 L534.6 254 L533.8 251.9 L532.7 250.8 L532.3 250.6 L531.9 248.8 L532.4 247.6 L533.2 247.7 L534.6 247.4 L535.6 248.2 L537.8 247.3 L537.9 246.1 L537.7 244.9 L537.3 243.9 L538.7 242.5 L538.4 241.8 L538.4 240.5 L538.3 239.8 L537.9 239.3 L538.1 238.3 L536.6 236.7 L535.2 236.5 L534.4 232.1 L535.2 231.1 L534.1 230.1 L532.4 229.8 L532.3 228.9 L531.9 228.6 L530.9 226.1 L530.8 223.9 L529.7 224.6 L528.1 223.5 L528.8 222.2 L527.4 221.7 L526.8 223.5 L525.7 222.9 L525.5 222.2 L523.5 221.1 L522.1 221.4 L520.6 220.4 L518.3 220.1 L517.7 218.3 Z"><title>BA</title></path>
    <path id="uf-CE" d="M502.6 139.1 L501.5 138.9 L499.6 139.5 L497.3 139.6 L492.6 140.3 L490.3 140.1 L489.6 140.6 L490.3 141.2 L490.4 142.4 L489.6 144.1 L488.3 146.4 L489.5 146.9 L489.8 148.4 L488.9 149.4 L489.4 151 L490.7 151.4 L490.6 154 L490.8 154.9 L491.5 155.6 L492.1 157 L492.6 157.9 L492.6 157.9 L492.4 159.8 L491.9 160.4 L491.6 161.8 L490.7 163.3 L491.6 164.5 L490.8 166.5 L490.6 167.3 L492.3 169.4 L492.9 170.4 L495 171.5 L494.9 175.1 L495 175.9 L495.3 177.9 L495.2 179.6 L495.7 182.5 L495.3 183.5 L495.9 184.3 L496 185.9 L497 187.5 L496.9 189.7 L497.6 191.1 L498 192.1 L501.2 192.9 L502.6 193.9 L501.9 195.7 L501.4 197.7 L500.8 199.5 L500.5 201 L501.8 201.6 L503 201.1 L504.4 201 L505.6 201.7 L509 201.2 L509.2 201.3 L511.3 201.1 L513.2 202.5 L514 203.2 L515.1 203.1 L515.3 204.5 L516.1 204.9 L516.4 205.1 L517.8 205.7 L519.5 206.5 L520.1 207.2 L520.2 208.4 L521.2 207.8 L521.9 208.2 L522 208.2 L522.9 206.9 L525.3 205.2 L525.4 205.1 L525.8 204.5 L527.7 201.2 L527.6 200.1 L526.7 199.6 L526.4 199.1 L526 197.2 L526 197.2 L524.7 196.5 L524.7 195.4 L526 194.5 L526.8 193.6 L526.2 193.3 L526 192.6 L526.3 191.5 L526.9 190.1 L526.8 190.2 L527.8 188.6 L527.5 187.7 L527.4 186.9 L528.1 185.9 L528.8 184.5 L529.6 183.6 L530.5 183.9 L531.4 183.8 L531.7 183 L533 182 L533 181.8 L534.4 179.5 L534.1 178.4 L534.8 177.7 L536.6 176 L537.8 173.5 L538.1 173.2 L538.2 172.4 L538.1 172.1 L539.6 169.8 L540.1 168.1 L542.5 167.5 L542.8 167.5 L544 167.2 L545.5 166.8 L544.5 165 L541.5 164.2 L540.7 163.9 L538.4 161.2 L537.3 160.6 L533.2 156.8 L532.1 155.5 L529.7 153 L528.8 151.4 L527.1 151.2 L526.2 151 L524.1 149.2 L522.4 148 L520.6 147.2 L519.2 146.1 L517.9 144.7 L516.3 144.2 L513.9 142.7 L511.6 141.6 L508.5 139.8 L505.2 139.1 Z"><title>CE</title></path>
    <path id="uf-DF" d="M397.6 320.9 L398.7 320.9 L402.2 320.9 L407.3 320.9 L407.3 320.7 L406.5 320.3 L406.4 318.6 L407.2 316.8 L407.2 314.6 L404.8 313.4 L397.3 313.4 L397.1 313.4 L397.1 313.4 L396.8 313.4 L395.1 313.4 L394.6 315.6 L395 316.4 L394 317.9 L394 320.9 L396.7 320.9 L397.6 320.9 Z"><title>DF</title></path>
    <path id="uf-ES" d="M490.3 374.4 L489.9 374.3 L488.3 378 L488.3 378 L484.8 378 L483.6 378 L483.3 378.8 L482.7 379.5 L482.2 380.3 L482.5 380.8 L483 381 L483 381.7 L482.7 381.8 L482.3 384.7 L482 385.7 L482.4 385.9 L483.3 386.2 L483.8 387.2 L483.9 388.1 L484.1 390.4 L485.1 390.9 L486.3 391.3 L487.5 391.7 L490.2 392.2 L492.1 392 L494.5 393.1 L495 391.5 L496.6 388.9 L497.3 387.1 L498.1 386.7 L499.9 385.7 L502.5 382.5 L504 379.6 L504.8 378.5 L505.1 375.9 L505.6 375.4 L507 372.6 L508.9 370.9 L510.3 370.4 L512 365.6 L511.6 362.8 L511.2 357.4 L511.5 354.8 L512.3 352.3 L508.9 350.2 L504.7 347.5 L504.7 347.4 L502.7 346.7 L500.5 346.2 L498.6 347.9 L496.8 347.1 L495.3 347.5 L497.1 349.2 L493.3 350 L491.8 351.9 L492 353.3 L491.5 353.7 L493.7 354 L493.6 355 L493.3 356.4 L494.8 357.2 L495.1 358.9 L493.6 359.2 L492 358.7 L490.8 358.7 L490.7 359.4 L492.1 359.9 L493.1 360.7 L493.2 362.2 L494.5 363.1 L494.9 364.5 L494.9 364.9 L494.5 367.3 L494.4 368.4 L491.7 370.7 L491.6 372 L491.4 373.7 Z"><title>ES</title></path>
    <path id="uf-GO" d="M394.6 315.6 L395.1 313.4 L396.8 313.4 L397.1 313.4 L397.1 313.4 L397.3 313.4 L404.8 313.4 L407.2 314.6 L407.2 316.8 L406.4 318.6 L406.5 320.3 L407.3 320.7 L409.7 319.2 L412.2 319.1 L414.2 318.5 L413.2 314.9 L412.3 314.2 L412.5 312.6 L413.6 311.6 L413.3 310.4 L412.4 309.3 L412.6 307.3 L413.5 306.6 L416.7 307.7 L418.1 307.3 L418.4 307.2 L417.6 304 L418.4 302.4 L420.9 303.9 L420.9 305.1 L422.9 305.8 L424.8 304.8 L425 302.1 L425 302 L425.5 301.8 L425.3 298.9 L426.6 297.6 L424.5 295.9 L422.8 294.9 L422.2 293.4 L422.4 292.9 L421.7 292 L422.1 288.7 L423.1 287.3 L421.9 287 L422.4 285.4 L421.9 285 L424.4 283.1 L423.9 282.6 L421.3 283.4 L420.8 282.5 L421.2 279.9 L423.8 277.9 L420.3 278.9 L419.6 276.6 L419.2 278.1 L419.1 278.6 L416.6 278.6 L415 278.6 L413.6 279.9 L406.2 282.6 L403.8 280.6 L402.4 282 L403 284.1 L402.2 285.5 L400.6 283.5 L398.3 283.3 L396.8 282.3 L395.5 283.1 L395.9 281.1 L391.5 282.9 L390.7 280.9 L389.9 283.3 L389.9 280.7 L389 279.2 L385.9 276.3 L385.7 276.5 L384.4 278.4 L382.5 276.1 L380.8 277.4 L379.2 281.2 L379 282.8 L371.6 278.7 L367.8 277.6 L366.1 276.2 L367 273.5 L367.7 273 L367.4 271.9 L368.4 270.7 L366.2 272 L364.4 274.2 L363.3 277.1 L362.5 279.5 L362 283.4 L361.2 285 L359.9 286.2 L359.2 288.6 L358.3 289.1 L358.8 294.2 L357.8 294.8 L356.6 298.4 L357.1 300 L355.3 305 L355.3 305 L355.4 305.4 L355.3 305.5 L355.2 305.5 L352.8 307.1 L352.4 306.2 L352 306.2 L351.9 306.2 L351.8 306.3 L351.8 306.4 L349.3 307.4 L347.7 308.9 L347 313.2 L345.9 314 L346.1 315.5 L344.5 317.8 L343.3 318 L342.7 318.7 L339.4 318.8 L337.9 321.4 L336.4 322 L335.4 323.3 L333.5 324.4 L334.2 327.3 L332.8 328.3 L333 329 L331.4 330.8 L330.3 331.4 L330.1 331.7 L328.9 332.1 L328.3 335 L327.6 335.5 L326.2 338 L325.8 340.9 L325.8 342.2 L325.9 343.8 L326.9 344.5 L328.1 348.2 L327.2 348.9 L327.8 352 L331.6 352 L332.4 352.7 L331.4 353.5 L329.6 355.3 L330.2 356.1 L330.9 356.6 L332.6 357.2 L336 357 L337.2 357.9 L338.3 359.1 L340.4 359.4 L341.8 360.8 L343.7 361 L344.9 362.2 L347.1 363.1 L349.2 363.4 L350.5 363.7 L355.3 365.7 L357.5 367.9 L359 367.9 L358.3 367.3 L359 365.7 L360.2 364.4 L360.3 364 L361.5 363.3 L363 362.8 L363.9 360.4 L365.5 358.2 L366.6 357.1 L369.3 356.9 L370 356 L373.2 356.6 L373.7 356.1 L374.2 356.1 L376.6 355.1 L377.4 355 L379 356.4 L380.1 355.5 L380.7 354.9 L381.3 353.4 L383.4 353.2 L384.6 352.2 L385.2 351.9 L387 352.6 L388.8 352.4 L393.1 352.8 L394.1 352.2 L394.7 352.5 L397.5 353.7 L398.5 354.6 L399.7 353.9 L399.7 353.8 L401 353.5 L402.2 352.6 L403.2 352 L403.2 351.1 L405.7 350 L406 349.7 L407.7 348.3 L406.5 345.4 L407.9 342.4 L407.3 341.4 L405.2 341.3 L404.2 340.3 L404.4 339.6 L404.5 338.5 L404.9 338.8 L406.7 336.3 L409.1 334.9 L409.8 333.7 L408.7 332.2 L408.5 330.1 L407.5 328.8 L405.9 328.1 L405.3 326.6 L407.1 323.1 L407.3 320.9 L402.2 320.9 L398.7 320.9 L397.6 320.9 L397.6 320.9 L397.6 320.9 L396.7 320.9 L394 320.9 L394 317.9 L395 316.4 Z"><title>GO</title></path>
    <path id="uf-MA" d="M397.5 166.1 L397 166.4 L395.2 167.9 L394.9 168.1 L391.6 170.7 L387.5 173.9 L389.5 173.7 L390.1 172.3 L391.1 171.8 L392.8 171.4 L394.7 172.3 L395.3 172.6 L396.9 172.8 L397.6 172.4 L398.7 172.4 L399.7 173.3 L400.2 174.4 L402.2 174.8 L403.9 175.5 L405 177.7 L405 177.9 L405.5 180.5 L405.5 180.9 L405.5 183 L405.7 183.8 L406.3 186.3 L405.7 188.7 L405.7 189.7 L405.2 190.8 L404.7 192.4 L404.4 194.4 L404 196.8 L402.5 198.7 L401.3 198.8 L402.2 200 L402.6 200.7 L404.1 200.2 L405 201.2 L403.4 202.6 L404.7 202.6 L405.7 204.1 L408.2 207.7 L409 208.2 L411.4 211.1 L414.2 209.7 L416.9 208.9 L418.4 210 L418.9 211.3 L417.8 214.7 L415.3 215.6 L414.6 215.4 L413.7 217.7 L412.9 218.5 L412.7 222.1 L411 224.1 L410.6 224.9 L412.4 224.9 L412.6 225.9 L414 227 L413.7 228.1 L414.9 229.8 L416.6 229.7 L417.9 231.8 L417.2 232.1 L416.5 234.2 L418.3 235 L418.8 236.5 L419.2 238.9 L420.8 240.3 L422.6 240.3 L425 240.3 L425.1 241.2 L426 241.4 L427.5 237 L427.1 236 L427.6 233.4 L427.5 231.8 L428.2 230.7 L426.8 228.8 L426.2 224.6 L425.4 223.1 L426.1 221.1 L427.5 220.2 L429.3 215.7 L429.9 213.8 L431 212.5 L431.9 208.8 L431.6 208.4 L432.8 205.8 L434.4 204.6 L437.9 203.5 L439.2 203.2 L439.2 203.2 L441.6 201.6 L443.3 202 L445 199.7 L447.5 198.3 L448.5 198.2 L449 197.4 L449.4 196.6 L451.2 193.9 L453.7 193.4 L456.2 192.5 L457.8 192.7 L459.8 194.1 L460.3 194.5 L461.1 194.3 L463.1 193.4 L466.6 193.1 L467.7 191.8 L468.1 189.8 L468.6 186.7 L466.8 184.8 L465.8 184.2 L465.2 181.6 L465.5 181 L465.2 177.6 L466.5 176.6 L467 175.3 L469 173.5 L469.3 171.7 L468 167.7 L468 167.6 L467.2 164.8 L468.6 162.2 L467.2 160.7 L467 160.3 L466.7 158.4 L467.3 157.7 L468.5 156.5 L469.4 155.1 L470.3 153.8 L471 152.5 L470.9 151.2 L471.6 150.3 L471.8 150 L472.5 149.3 L473.4 147.8 L473.8 148.3 L474.8 148.2 L476.5 147.7 L477.5 147.6 L478.5 146.4 L478.6 145.3 L480.5 144.7 L480.5 144.6 L482.1 142.5 L483 141.1 L482.5 140.5 L482.6 138.3 L482.9 137.9 L479.7 137.9 L479.3 137.3 L477.2 137.4 L476.6 138.3 L473.6 137.6 L471.4 136.5 L466.3 134.2 L463.3 132.8 L462.2 132.6 L461.3 132.6 L459.9 133.2 L460.2 134.6 L459.1 133.7 L458.6 134.9 L456.9 135 L456.3 133.9 L457.7 133.4 L458.4 131.8 L456.6 131.9 L456.1 133.7 L455 133.6 L454.8 134.9 L453.7 135.6 L451.7 138.1 L450.7 138.5 L449.1 138.3 L450.4 137.5 L451.5 135.8 L452.3 135.5 L452.1 134.3 L452.3 133.5 L450.4 134.2 L450.3 134.2 L449.7 134.4 L448.6 134.6 L447.1 138.9 L446.9 140.9 L446 142 L445.2 142.3 L444.7 142.2 L443.7 141.8 L443.8 140.2 L443.8 139 L445.2 136.1 L447.9 132.6 L446.4 129.9 L443.9 132 L443.5 131.8 L445.9 128.2 L444.8 128.3 L446.2 127.7 L445.2 126.4 L445.4 125.5 L444.3 124.6 L442.3 124.9 L443.1 124.1 L441.8 123.8 L444 122.6 L442.8 121.8 L441.1 122.6 L440.6 122.5 L441 119.8 L439.7 121.9 L438.9 120.8 L436.3 120.9 L435.4 122.4 L434.6 122.4 L434.8 118.7 L432.5 120.8 L432 118.4 L430.7 117.9 L429.6 117.9 L428.3 116.8 L428.2 116.7 L428.1 116.7 L427.4 117.1 L427.3 114.9 L425.9 116.9 L425.4 114.9 L423.9 116.9 L423.1 118 L423.9 118.8 L422.9 120.7 L423.1 122.7 L422.4 124.2 L421 124.4 L421 125.2 L422.4 125.6 L422.2 126.7 L421.7 128.6 L421.4 130 L419.6 131.7 L419.3 133.6 L419.3 134.4 L418.3 136.4 L417 136.7 L416.1 138 L417.2 139.5 L415.9 140.2 L416 142.9 L414.7 144.1 L414.1 145.8 L412.3 146.8 L412.3 148.2 L411 149.4 L411.1 149.9 L410.3 153.5 L406.8 156.9 L406.5 158.8 L405.5 159.3 L403.1 163.1 L402.2 163.7 L400.4 163.8 Z M446.2 137.9 L444.7 139.1 L444 141.4 L445.1 141.9 L446.2 141.1 Z M439.5 117.9 L438.6 118.5 L439.2 119.7 L440.9 118.7 Z"><title>MA</title></path>
    <path id="uf-MG" d="M402.2 352.6 L401 353.5 L399.7 353.8 L399.7 353.9 L398.5 354.6 L397.5 353.7 L394.7 352.5 L394.1 352.2 L393.1 352.8 L388.8 352.4 L387 352.6 L385.2 351.9 L384.6 352.2 L383.4 353.2 L381.3 353.4 L380.7 354.9 L380.1 355.5 L379 356.4 L377.4 355 L376.6 355.1 L374.2 356.1 L373.7 356.1 L373.2 356.6 L370 356 L369.3 356.9 L366.6 357.1 L365.5 358.2 L363.9 360.4 L363 362.8 L361.5 363.3 L360.3 364 L360.2 364.4 L359 365.7 L358.3 367.3 L359 367.9 L357.5 367.9 L357.6 369.6 L356.1 371 L356.2 372.3 L356.6 376.4 L358.2 375.1 L358.8 374.7 L360.9 374 L361.9 373.3 L362.6 372.6 L364.1 372.2 L365.7 373.4 L368 373.5 L368.9 373.5 L369.7 374 L371.6 374.3 L373.8 374.2 L375.7 374.1 L377.9 374.9 L380.7 374.8 L379.9 376.8 L380.4 378.3 L380.5 378.7 L381.6 379.5 L382.4 378.9 L383.2 377.3 L384.3 377.5 L384.6 380.7 L385.6 381.2 L385.9 380.7 L385.6 379 L386.5 377.4 L387.8 377.3 L388.9 377.5 L390.4 377 L391.6 376.9 L394.8 376.9 L395 375.8 L396.8 377.2 L398.1 375.7 L399.2 376.9 L399.6 376.2 L399.9 375 L401.1 375 L402.8 375.8 L404 375.1 L404.8 374.8 L407 376.8 L408.4 378.2 L408.4 378.3 L407.8 379.2 L407.5 380.9 L408.5 381.9 L409.6 382.6 L409.7 382.9 L409.6 383 L410.2 384.6 L409 385.2 L408.4 386.9 L408.4 387 L409.1 388.3 L409.5 389.4 L409.9 391 L409.9 391.5 L411 392.6 L411.6 393.8 L411.4 394.7 L413.2 394.5 L414.6 394 L414.8 393.9 L416.4 394.1 L416.8 394.8 L418.3 395.6 L418.3 396.7 L417.7 397.9 L416.9 398.2 L416.6 399.5 L415.8 400.4 L416.8 402.6 L416.4 402.8 L415.4 403.8 L417.1 404.5 L416.4 405.1 L416.1 405.1 L416 405.6 L415.4 406.9 L416.2 407.7 L416.8 408.7 L417.7 409.1 L419 409.8 L419.5 410.9 L419.9 411.8 L418.8 412.3 L420.7 413.2 L420.2 413.9 L420.6 415.1 L422.7 414.5 L424.6 415 L425.9 414.3 L427.1 414.6 L428.5 414.1 L429.3 413.2 L428 412.8 L429.5 411.6 L429 411.2 L429.7 410.5 L429.9 411.6 L431.1 410.9 L431.1 411.6 L432.4 410.8 L433.3 411.2 L433.5 411.6 L435.3 411.1 L436.8 410 L437.3 409.5 L437.6 409.4 L439.5 409.2 L441.2 408.5 L441.7 408.2 L441.7 408.2 L441.7 408.1 L443.6 407.8 L443.7 407.9 L445.3 407.2 L446.5 406.2 L447.8 406.2 L449.2 406.3 L450.2 406 L450.3 405.8 L453.1 404.7 L456 403.5 L456.8 403.7 L457.3 403.8 L458.4 403.4 L460.5 403.5 L461.8 402.7 L462 402.8 L463.4 403.1 L464.7 403.1 L464.7 403.1 L464.6 404.1 L466.5 403.1 L467.8 402.5 L471.1 400.9 L471.9 400.6 L473.9 399.7 L473.9 399.7 L475.1 399.2 L476.6 398.7 L475.4 397.1 L475.5 396.9 L476.8 395.6 L476.5 394.8 L477 393.6 L477.2 393.6 L477.5 392 L477.6 391.1 L477.9 390.7 L478.6 390 L479.2 389.3 L479.1 389.2 L478.2 388.6 L480.6 388 L481.2 386.8 L481.2 386.1 L482 385.7 L482.3 384.7 L482.7 381.8 L483 381.7 L483 381 L482.5 380.8 L482.2 380.3 L482.7 379.5 L483.3 378.8 L483.6 378 L484.8 378 L488.3 378 L488.3 378 L489.9 374.3 L490.3 374.4 L491.4 373.7 L491.6 372 L491.7 370.7 L494.4 368.4 L494.5 367.3 L494.9 364.9 L494.9 364.5 L494.5 363.1 L493.2 362.2 L493.1 360.7 L492.1 359.9 L490.7 359.4 L490.8 358.7 L492 358.7 L493.6 359.2 L495.1 358.9 L494.8 357.2 L493.3 356.4 L493.6 355 L493.7 354 L491.5 353.7 L492 353.3 L491.8 351.9 L493.3 350 L497.1 349.2 L495.3 347.5 L496.8 347.1 L498.6 347.9 L500.5 346.2 L502.7 346.7 L504.7 347.4 L504.8 346.3 L504.7 344.1 L504.4 344.1 L503 342.4 L502 342.4 L501.1 340.7 L500.6 340.1 L499.4 338.9 L500.2 337.9 L499.8 336 L501 332.4 L501.8 332.4 L502.1 332.6 L502.2 332.5 L503.9 332.6 L503.5 329.8 L503.4 329.6 L503.9 328.1 L505.6 328.2 L506.2 326.4 L507.5 325 L508.9 324.1 L509.7 321.8 L508.9 320.2 L507.7 320.3 L506 319 L504.5 317.5 L501.9 317.6 L501.5 317 L500.6 317.5 L498.9 316.5 L498.1 315.7 L497.2 316.3 L496.5 315.4 L492 317.1 L489.5 316.7 L489.3 315.3 L489 313.3 L489 313.3 L487.7 312.1 L483.6 308.4 L483 307.9 L482.9 307.9 L480.9 308.9 L479.6 308.8 L477.9 307.7 L476.6 308.2 L476.4 308.1 L473.7 306.7 L473.2 306.3 L471.8 305.7 L468.3 303.3 L467.4 302.5 L464.1 301.7 L462.2 302 L459.8 303.6 L459.2 304 L459.2 304 L456.7 302.6 L454.4 301.7 L454.4 300.5 L455.3 298.1 L455.8 297.4 L453.2 296.5 L452.2 296.7 L448.7 296.2 L447.1 296.6 L445.1 297.4 L442.6 299.2 L441.3 299.6 L440.7 301 L438.5 302.1 L437.7 303.1 L436.2 303 L434.8 304.2 L430.6 306.7 L428.9 308.1 L425.7 308.6 L424.2 310.1 L425.8 306 L424.8 304.8 L424.8 304.8 L422.9 305.8 L420.9 305.1 L420.9 303.9 L418.4 302.4 L417.6 304 L418.4 307.2 L418.1 307.3 L416.7 307.7 L413.5 306.6 L412.6 307.3 L412.4 309.3 L413.3 310.4 L413.6 311.6 L412.5 312.6 L412.3 314.2 L413.2 314.9 L414.2 318.5 L412.2 319.1 L409.7 319.2 L407.3 320.7 L407.3 320.9 L407.1 323.1 L405.3 326.6 L405.9 328.1 L407.5 328.8 L408.5 330.1 L408.7 332.2 L409.8 333.7 L409.1 334.9 L406.7 336.3 L404.9 338.8 L404.5 338.5 L404.4 339.6 L404.2 340.3 L405.2 341.3 L407.3 341.4 L407.9 342.4 L406.5 345.4 L407.7 348.3 L406 349.7 L405.7 350 L403.2 351.1 L403.2 352 Z"><title>MG</title></path>
    <path id="uf-MS" d="M323.6 347.6 L322.5 348.3 L320.7 347.4 L318.5 347.7 L316.1 346.6 L317.4 343.6 L318.7 343.2 L319.5 343.1 L319.8 337.5 L317.9 338 L315.8 340.5 L315.1 340.5 L314.3 342.4 L312.8 342.3 L311.2 343.1 L308.5 340.6 L305.1 341.1 L303.6 342.5 L299.8 342.9 L299.8 342.9 L297.5 341.4 L294.7 340.6 L293.4 339 L293.4 339 L288.1 337.5 L287.3 336.3 L284.5 337 L281.9 338.5 L278 338.2 L275.9 341.3 L274.4 341.9 L274.3 343 L272.6 344.7 L269 345.3 L268 346 L265.9 345 L264.8 343.8 L264.7 342.6 L263.8 341.7 L263.4 342.7 L264.4 344 L264.3 345.4 L266.3 349.5 L267.9 350.9 L266.5 351 L263.7 360.1 L264.4 361.9 L263.4 361.9 L258.6 371.9 L262.4 374.8 L258.1 377.5 L259.1 378.7 L259.4 380.5 L260.5 381.3 L260.3 383.5 L261 384.9 L262.3 385.4 L261 386.1 L262.4 386.5 L261.4 387.5 L262.7 388 L262.3 389.5 L262.4 393.3 L261 396.6 L262 398.3 L260.9 400.5 L261.6 401 L260.5 403.9 L263.9 404.6 L265.8 404 L267.1 405 L269.8 406 L273.5 405.8 L276.3 406.8 L280.1 405.5 L281 404 L282.5 403.7 L283.2 405.2 L285.1 406.5 L290.1 406.6 L291.1 407.9 L291.7 410.2 L293.2 412.2 L292.5 414.4 L293.5 418.5 L294.3 419.7 L294.7 421.6 L294 423 L294.4 425 L295.7 426.2 L295.5 429 L296.1 429.8 L298.1 430 L300.8 430 L306 427.8 L309.5 429.2 L311.5 431.1 L313.1 430.1 L314.2 428.3 L314.3 427.5 L314.7 425.8 L315 425 L315.9 422.5 L318.7 421.3 L319.3 420.3 L320.4 418.1 L320.4 416.4 L321.6 414.9 L323.5 413.8 L324.6 413.2 L325.8 412.7 L327.4 411.6 L327.7 411.2 L328.1 410.2 L329.8 409.2 L333.9 406.8 L336.6 405.2 L337.5 404.2 L338.5 402.3 L340.7 399.5 L342.1 398.2 L341.5 396.8 L343.4 395.7 L344.8 393.5 L344.5 391.6 L346 389.6 L348 388.2 L347.9 385.6 L348.7 383.7 L348.8 383.7 L350.9 381.6 L351.9 380.1 L355.1 379 L356.6 376.5 L356.6 376.4 L356.2 372.3 L356.1 371 L357.6 369.6 L357.5 367.9 L355.3 365.7 L350.5 363.7 L349.2 363.4 L347.1 363.1 L344.9 362.2 L343.7 361 L341.8 360.8 L340.4 359.4 L338.3 359.1 L337.2 357.9 L336 357 L332.6 357.2 L330.9 356.6 L330.2 356.1 L329.6 355.3 L331.4 353.5 L332.4 352.7 L331.6 352 L327.8 352 L327.2 348.9 L328.1 348.2 L325.9 347.8 Z"><title>MS</title></path>
    <path id="uf-MT" d="M284.2 229.6 L278.7 229.1 L277.6 229.6 L276.7 227.5 L274.2 227.3 L273.4 226.6 L273.6 225.4 L271.4 223 L268.5 222.1 L268.4 221.2 L266 220.7 L265.5 217.6 L264.8 215.9 L265.4 213.3 L262.8 209.8 L261.9 205.9 L259.6 202 L258.6 201.5 L257.5 202.9 L257.7 205.1 L256.4 207.2 L255.3 208 L256.5 211.5 L256.1 214.8 L254.7 217.1 L255.1 218.5 L254.4 220 L255.9 220.1 L254.4 221.3 L245 221.4 L227.2 221.3 L211.2 221.3 L212.8 223 L211.6 225.3 L212 227.5 L210.6 227.6 L210.8 228.6 L211.2 230.4 L212.7 232.7 L211.3 233.9 L212.3 235.9 L211.8 237.8 L211.2 238.7 L211.6 242 L212.9 243.6 L212.7 248.3 L211.7 251.4 L213.3 251.4 L219.2 251.4 L226.6 251.4 L227.6 252.8 L233.3 253.2 L233.2 254.8 L234.1 256.2 L233.9 257.4 L231.4 259.5 L231.6 263.2 L233.2 264.1 L233.3 265.7 L234.3 266.9 L234.5 268.6 L236 270 L233.7 273.5 L232.6 273.8 L231.4 278.5 L230.5 278.6 L229.3 280.1 L228.4 282.6 L227.9 283.4 L227.6 285.3 L224.3 286.9 L223.2 288.5 L226.5 289.9 L226.8 291.9 L227.7 292.7 L226.4 294.1 L226.7 297.1 L229.2 301.3 L229.6 307.8 L225.1 307.8 L229.7 313 L230.6 323.9 L240.3 324.1 L249.7 324.5 L254.5 324.7 L256 323.9 L255.7 327.4 L254.5 328.4 L253.9 333.1 L255.1 334.5 L255 336.5 L257.1 338.9 L260.5 341.1 L262 340.1 L263.8 341.7 L264.7 342.6 L264.8 343.8 L265.9 345 L268 346 L269 345.3 L272.6 344.7 L274.3 343 L274.4 341.9 L275.9 341.3 L278 338.2 L281.9 338.5 L284.5 337 L287.3 336.3 L288.1 337.5 L293.4 339 L293.4 339 L294.7 340.6 L297.5 341.4 L299.8 342.9 L299.8 342.9 L303.6 342.5 L305.1 341.1 L308.5 340.6 L311.2 343.1 L312.8 342.3 L314.3 342.4 L315.1 340.5 L315.8 340.5 L317.9 338 L319.8 337.5 L319.5 343.1 L318.7 343.2 L317.4 343.6 L316.1 346.6 L318.5 347.7 L320.7 347.4 L322.5 348.3 L323.6 347.6 L325.9 347.8 L328.1 348.2 L326.9 344.5 L325.9 343.8 L325.8 342.2 L325.8 340.9 L326.2 338 L327.6 335.5 L328.3 335 L328.9 332.1 L330.1 331.7 L330.3 331.4 L331.4 330.8 L333 329 L332.8 328.3 L334.2 327.3 L333.5 324.4 L335.4 323.3 L336.4 322 L337.9 321.4 L339.4 318.8 L342.7 318.7 L343.3 318 L344.5 317.8 L346.1 315.5 L345.9 314 L347 313.2 L347.7 308.9 L349.3 307.4 L351.8 306.4 L350.9 306.4 L351.8 306.4 L351.9 306.2 L352 306.2 L352 306.1 L352.4 306.2 L352.8 307.1 L355.2 305.5 L355.3 305.5 L355.4 305.4 L355.3 305 L355.3 305 L357.1 300 L356.6 298.4 L357.8 294.8 L358.8 294.2 L358.3 289.1 L359.2 288.6 L359.9 286.2 L361.2 285 L362 283.4 L362.5 279.5 L363.3 277.1 L361.8 276.5 L361 274.2 L361.8 271.5 L361.5 268.3 L361 268.3 L361 265.2 L361.6 263.7 L360.5 261.5 L361.1 259.5 L360.2 259 L360.7 255.8 L362 252.5 L361.7 250.6 L362.5 248.1 L362.1 246.9 L362.1 246.9 L362.9 246.2 L363.8 243.4 L364.6 242.7 L364.9 239.9 L366.2 238.3 L367.3 235.6 L358.7 235.1 L352.4 234.7 L339.3 233.8 L334.4 233.4 L327.3 232.9 L321 232.5 L313.9 231.9 L307 231.4 L301.7 231 L289.7 230 L285.8 229.7 Z"><title>MT</title></path>
    <path id="uf-PA" d="M395.2 167.9 L397 166.4 L397.5 166.1 L400.4 163.8 L402.2 163.7 L403.1 163.1 L405.5 159.3 L406.5 158.8 L406.8 156.9 L410.3 153.5 L411.1 149.9 L411 149.4 L412.3 148.2 L412.3 146.8 L414.1 145.8 L414.7 144.1 L416 142.9 L415.9 140.2 L417.2 139.5 L416.1 138 L417 136.7 L418.3 136.4 L419.3 134.4 L419.3 133.6 L419.6 131.7 L421.4 130 L421.7 128.6 L422.2 126.7 L422.4 125.6 L421 125.2 L421 124.4 L422.4 124.2 L423.1 122.7 L422.9 120.7 L423.9 118.8 L423.1 118 L423.9 116.9 L424.4 115.6 L424 114.4 L422.6 115.3 L422.5 112.6 L420.7 114.5 L418.9 114.5 L418.5 112.4 L418 113.5 L416.6 113.7 L416.7 111.4 L414.4 112.4 L413.8 110.7 L412.4 112.2 L411.7 110.2 L410.7 111.3 L410.3 109.7 L409.4 110.9 L409.2 109.7 L408 109.3 L406.3 108.7 L405.7 109.5 L405 108.6 L404.9 110.6 L403.5 108.3 L403.2 110 L402.9 110.1 L402.9 108.7 L401.2 108.8 L399 108.2 L398.1 109.9 L397.1 109.5 L395.9 110.8 L395.5 111.6 L393.8 113.1 L392.2 112.9 L391.3 112.4 L390.9 110.7 L391.8 106.1 L392.7 104.6 L391.9 103.5 L387.6 103.9 L385.2 103.6 L381.8 102.2 L378.8 103.1 L378.1 102.2 L379.2 100.8 L378.6 99.6 L375.4 99.4 L374.5 98.4 L375.4 97.1 L377.4 95.8 L376.2 94.7 L371.9 96 L368 95.7 L368 95 L369.9 93.1 L369.4 91.7 L367.2 90.9 L364.7 91.9 L362.1 97 L361.5 97.6 L360.1 98.6 L357 99.9 L355 101.8 L353.8 102 L351.8 104.5 L350.7 106.9 L348.4 109.4 L347.2 111.4 L347 115 L345.9 116.1 L344.4 116.4 L343.3 115.9 L341.4 117.1 L341.2 116.2 L338.3 115.8 L337.1 114.9 L336.6 111.8 L335.9 112.2 L336 110.2 L335.5 108.3 L334.1 108.5 L333.3 107.2 L333.5 104.7 L330.1 102.4 L329.4 100 L327.8 97.7 L326.7 95.2 L327.1 92.2 L327.7 91.1 L323.5 87.7 L322.8 84.8 L323.2 83.5 L321.9 83.8 L321.8 82.3 L316.9 81.1 L316.8 80.4 L314.2 79.9 L313.7 78.3 L310.2 76.2 L308.6 76.4 L307.1 75.9 L305.2 76 L305 73.3 L304.3 72.4 L304.9 70.2 L303.4 67 L302.3 64.9 L300.2 65.7 L299.3 65.3 L297.3 65.9 L296.4 67.2 L294.8 66.9 L291.9 67.4 L291.8 67.4 L288.8 65.6 L287.2 68.3 L286 69.3 L287.3 69.8 L288.4 71.7 L289.2 74.5 L287.9 75.3 L285.8 74.4 L284.6 74.6 L281.9 73.6 L280 74.2 L278 74 L277.1 74.9 L275.3 73.9 L274.2 74.2 L273 72.6 L270.7 73.7 L270 73 L268.2 74.2 L268 75.6 L266.3 77.2 L263.3 76.7 L263.2 77.2 L260.6 77.6 L260.4 79.8 L258.7 79.8 L258.2 79 L256.1 78.9 L255.3 80.1 L253.5 80.3 L254.2 81.6 L253.6 83 L250.7 82.7 L250.5 83.7 L249.1 84.3 L248.1 83.6 L248.1 96.8 L248.2 100.6 L248.6 101.5 L248.5 105.2 L250.5 106.5 L250.3 108.8 L251.3 110.3 L254.5 112.7 L254.6 114.6 L256.1 116.2 L256.9 116 L258.3 117.4 L260 115.5 L260.9 116.5 L260.5 118.7 L261 119.6 L264.4 121.1 L264.9 122.3 L266.1 122.1 L269.3 124.3 L270.6 123.7 L273.1 124.9 L273.8 126.8 L276.1 128.1 L277.6 128.1 L277.5 130.3 L278.6 130.8 L279.9 130.3 L280.7 129.8 L282.2 130.3 L284.8 128.7 L286.6 128.3 L285.1 130.4 L282.6 131.7 L281.5 133.8 L282.4 134.2 L277.4 145 L276.8 146.2 L275.4 149.4 L274.8 150.7 L269.4 162.3 L262.4 177.4 L256.8 189.4 L254.6 191.3 L253.8 193.6 L254.5 195.3 L255.8 196.4 L258 199.1 L258.4 201.3 L258.6 201.5 L259.6 202 L261.9 205.9 L262.8 209.8 L265.4 213.3 L264.8 215.9 L265.5 217.6 L266 220.7 L268.4 221.2 L268.5 222.1 L271.4 223 L273.6 225.4 L273.4 226.6 L274.2 227.3 L276.7 227.5 L277.6 229.6 L278.7 229.1 L284.2 229.6 L285.8 229.7 L289.7 230 L301.7 231 L307 231.4 L313.9 231.9 L321 232.5 L327.3 232.9 L334.4 233.4 L339.3 233.8 L352.4 234.7 L358.7 235.1 L367.3 235.6 L369.1 231.4 L369.8 228 L370.8 227.2 L372.2 225.2 L372.4 224.9 L374.7 222.1 L376 221.9 L377.5 219.6 L378.6 217.8 L379.3 216.1 L380.2 215.5 L381.1 213.1 L381.7 210.5 L381.8 208.4 L381.9 207.5 L379.4 205.6 L379.1 205 L378.9 203.4 L380.5 201.6 L381.5 199.3 L381.4 198.4 L381.4 197.1 L381.2 195.6 L382.9 194.4 L383.6 194 L386.1 193.1 L388.7 192 L389.1 189.6 L389.2 189.4 L391 187.7 L392.7 187.6 L391.8 185.6 L392.5 184.9 L393.9 184.2 L393.2 182.9 L394.6 182.1 L393.8 180.6 L394 179.1 L395.5 178.8 L395.9 177.4 L393.3 175.9 L392.7 174.6 L391.8 174.7 L389.6 174.9 L387.5 173.9 L391.6 170.7 L394.9 168.1 Z"><title>PA</title></path>
    <path id="uf-PB" d="M541.1 203.3 L541.8 202.6 L543 201.5 L543.6 201.5 L544.6 200.6 L545.4 200.4 L546.5 200.8 L548.2 201.8 L548.8 202.1 L549.1 203.1 L548.6 203.4 L548.6 203.4 L547.9 203.7 L546.2 205.3 L546.7 206.2 L546.9 206.4 L546.9 207.3 L546.6 207.6 L544.1 209.6 L546.9 210.7 L547 212 L546.7 212.7 L548.7 214.3 L549.6 214.4 L550.2 213.8 L551.9 212.9 L553.2 212.5 L554 211.9 L554.8 209.4 L555.3 209 L556.6 209.2 L557.2 207.7 L559.1 208 L559.7 207.1 L560.9 207.4 L562.4 207.7 L562.6 207.8 L563.5 207.4 L564.3 207.1 L565.1 206.9 L565.6 206.8 L567.1 206.3 L567.9 205.7 L569.2 205.5 L569.5 203.6 L569.6 203.2 L570.5 203.1 L571.4 202.7 L571.7 202.4 L571.8 202.3 L572.6 201.9 L574.3 202 L576.6 202.9 L576.6 203.5 L578.4 204 L578.7 204.1 L579.1 201.9 L579.1 199.9 L578.6 197.4 L578.4 197 L578.2 196.3 L577.8 194.7 L577.5 193.4 L577.4 192.8 L576.9 191.1 L576.9 189.5 L574.9 189.8 L574.4 190.4 L573.8 190.4 L573.3 190 L571.7 190.3 L571.4 189.9 L570.8 189.6 L570.3 189.5 L568.4 189.5 L567.7 189.1 L567.3 189 L565.8 189.5 L565.7 189.5 L564.5 189.6 L563.2 189.5 L561.4 188.6 L561.4 188.6 L560.3 188.8 L559.6 188.8 L558.6 187.9 L558.8 187.2 L558.6 186.9 L558 187 L555.8 188.2 L555.4 189.4 L556.1 190 L556.7 191.5 L555.5 191.2 L555.4 192.9 L555.2 194.4 L555 194.4 L554.9 194.9 L553.7 195.6 L552.2 195.4 L552.7 194.3 L551.2 192.9 L550.2 193.3 L549.5 193.6 L548.9 192.6 L548.5 192.9 L547.9 193.2 L546.9 193.8 L545.7 194.2 L545.3 192.9 L544.6 192.3 L542.3 192.6 L542.6 190.2 L543.7 188.9 L543.6 188.2 L544.4 187.1 L545.7 185.8 L546.8 184.9 L546.6 183.5 L545.4 183.2 L543.7 184 L541.8 184.9 L540.5 185.3 L539.2 185.3 L538.3 186.2 L537.4 187.4 L536.3 188.5 L534.8 189.4 L534.2 189.2 L533.6 190 L532.1 189.5 L531.2 189.8 L530.5 189.1 L529.1 188.4 L528.9 187.4 L527.5 187.7 L527.8 188.6 L526.8 190.2 L526.9 190.1 L526.3 191.5 L526 192.6 L526.2 193.3 L526.8 193.6 L526 194.5 L524.7 195.4 L524.7 196.5 L526 197.2 L526 197.2 L526.4 199.1 L526.7 199.6 L527.6 200.1 L527.7 201.2 L525.8 204.5 L525.4 205.1 L527.1 207 L528.9 206.5 L529.2 206.5 L530.3 205.9 L530.9 206.7 L532.2 207.9 L533.4 207.5 L533.6 207.8 L534.3 207.2 L535.2 207.3 L535.8 207.1 L536.5 206.2 L538.4 205.6 L538.6 205.2 L538.7 205 L538.8 204.8 L540.4 203.8 Z"><title>PB</title></path>
    <path id="uf-PE" d="M489.1 220 L490.2 220.4 L492.4 220 L492.6 221 L494.6 221.9 L496 223.4 L496.5 225.2 L498.5 226.6 L497.2 230.2 L497.9 230.2 L499.2 230.7 L502 228.9 L502.8 229.2 L504 225.2 L504.9 224.9 L505.9 225.6 L507.7 224.9 L508 224.8 L509.5 223.2 L509.2 221.7 L512.2 221.1 L512.6 219.4 L514.9 218.5 L516.6 217.9 L517.7 218.3 L518.3 220.1 L520.6 220.4 L522.1 221.4 L523.5 221.1 L525.5 222.2 L525.7 222.9 L526.8 223.5 L527.4 221.7 L528.8 222.2 L528.1 223.5 L529.7 224.6 L530.8 223.9 L530.9 226.1 L531.9 228.6 L533.1 227.5 L533.9 226.4 L535 226.2 L535.9 225.4 L537.6 223.1 L538.6 222 L539.3 223.2 L540.2 224.1 L541.7 223.6 L541.8 223.6 L543.5 224.5 L545.1 226.2 L545.8 227.2 L546.2 227 L546.6 227.7 L548.2 228.4 L548.2 228.3 L549.2 229 L549.8 229.3 L550.6 227.9 L551.7 227.9 L553.1 228.1 L554.1 228.6 L555.8 227.7 L557.1 227.1 L557.8 227.1 L558.7 226.5 L560 224.7 L561 224.5 L561.2 224.3 L560.9 223.5 L562.2 222.8 L562.8 222.7 L563.4 222.6 L564.8 222.3 L565.1 222.3 L566.5 222.8 L567.5 222.4 L568.4 222 L568.6 221.9 L569 221.6 L570.8 221.8 L571.6 222.2 L573.2 222.5 L574.3 222.9 L574.6 222.2 L575 221.1 L575.2 219.8 L575.8 218.7 L577 215.4 L577.4 213.4 L577.7 212.5 L578.3 210.9 L578.8 209.8 L578.6 208.2 L578.6 207.8 L578.5 206 L578.7 204.1 L578.4 204 L576.6 203.5 L576.6 202.9 L574.3 202 L572.6 201.9 L571.8 202.3 L571.7 202.4 L571.4 202.7 L570.5 203.1 L569.6 203.2 L569.5 203.6 L569.2 205.5 L567.9 205.7 L567.1 206.3 L565.6 206.8 L565.1 206.9 L564.3 207.1 L563.5 207.4 L562.6 207.8 L562.4 207.7 L560.9 207.4 L559.7 207.1 L559.1 208 L557.2 207.7 L556.6 209.2 L555.3 209 L554.8 209.4 L554 211.9 L553.2 212.5 L551.9 212.9 L550.2 213.8 L549.6 214.4 L548.7 214.3 L546.7 212.7 L547 212 L546.9 210.7 L544.1 209.6 L546.6 207.6 L546.9 207.3 L546.9 206.4 L546.7 206.2 L546.2 205.3 L547.9 203.7 L548.6 203.4 L548.6 203.4 L549.1 203.1 L548.8 202.1 L548.2 201.8 L546.5 200.8 L545.4 200.4 L544.6 200.6 L543.6 201.5 L543 201.5 L541.8 202.6 L541.1 203.3 L540.4 203.8 L538.8 204.8 L538.7 205 L538.6 205.2 L538.4 205.6 L536.5 206.2 L535.8 207.1 L535.2 207.3 L534.3 207.2 L533.6 207.8 L533.4 207.5 L532.2 207.9 L530.9 206.7 L530.3 205.9 L529.2 206.5 L528.9 206.5 L527.1 207 L525.4 205.1 L525.3 205.2 L522.9 206.9 L522 208.2 L521.9 208.2 L521.2 207.8 L520.2 208.4 L520.1 207.2 L519.5 206.5 L517.8 205.7 L516.4 205.1 L516.1 204.9 L515.3 204.5 L515.1 203.1 L514 203.2 L513.2 202.5 L511.3 201.1 L509.2 201.3 L509 201.2 L505.6 201.7 L504.4 201 L503 201.1 L501.8 201.6 L500.5 201 L500.2 202 L498.8 202.5 L497.9 203.2 L499.2 205.6 L498.5 207.1 L500.1 207.8 L500.3 209.8 L500 210.3 L499.8 210.7 L499.8 210.7 L499.4 211.8 L497.2 213.7 L497 214.4 L495.9 215.4 L495 216.5 L494.3 215.8 L491.9 217.7 L491.2 219 Z"><title>PE</title></path>
    <path id="uf-PI" d="M497.2 213.7 L499.4 211.8 L499.8 210.7 L499.8 210.7 L500 210.3 L500.3 209.8 L500.1 207.8 L498.5 207.1 L499.2 205.6 L497.9 203.2 L498.8 202.5 L500.2 202 L500.5 201 L500.8 199.5 L501.4 197.7 L501.9 195.7 L502.6 193.9 L501.2 192.9 L498 192.1 L497.6 191.1 L496.9 189.7 L497 187.5 L496 185.9 L495.9 184.3 L495.3 183.5 L495.7 182.5 L495.2 179.6 L495.3 177.9 L495 175.9 L494.9 175.1 L495 171.5 L492.9 170.4 L492.3 169.4 L490.6 167.3 L490.8 166.5 L491.6 164.5 L490.7 163.3 L491.6 161.8 L491.9 160.4 L492.4 159.8 L492.6 157.9 L492.6 157.9 L492.1 157 L491.5 155.6 L490.8 154.9 L490.6 154 L490.7 151.4 L489.4 151 L488.9 149.4 L489.8 148.4 L489.5 146.9 L488.3 146.4 L489.6 144.1 L490.4 142.4 L490.3 141.2 L489.6 140.6 L488 140.3 L485.1 139.8 L483.3 138.3 L482.6 138.3 L482.5 140.5 L483 141.1 L482.1 142.5 L480.5 144.6 L480.5 144.7 L478.6 145.3 L478.5 146.4 L477.5 147.6 L476.5 147.7 L474.8 148.2 L473.8 148.3 L473.4 147.8 L472.5 149.3 L471.8 150 L471.6 150.3 L470.9 151.2 L471 152.5 L470.3 153.8 L469.4 155.1 L468.5 156.5 L467.3 157.7 L466.7 158.4 L467 160.3 L467.2 160.7 L468.6 162.2 L467.2 164.8 L468 167.6 L468 167.7 L469.3 171.7 L469 173.5 L467 175.3 L466.5 176.6 L465.2 177.6 L465.5 181 L465.2 181.6 L465.8 184.2 L466.8 184.8 L468.6 186.7 L468.1 189.8 L467.7 191.8 L466.6 193.1 L463.1 193.4 L461.1 194.3 L460.3 194.5 L459.8 194.1 L457.8 192.7 L456.2 192.5 L453.7 193.4 L451.2 193.9 L449.4 196.6 L449 197.4 L448.5 198.2 L447.5 198.3 L445 199.7 L443.3 202 L441.6 201.6 L439.2 203.2 L439.2 203.2 L437.9 203.5 L434.4 204.6 L432.8 205.8 L431.6 208.4 L431.9 208.8 L431 212.5 L429.9 213.8 L429.3 215.7 L427.5 220.2 L426.1 221.1 L425.4 223.1 L426.2 224.6 L426.8 228.8 L428.2 230.7 L427.5 231.8 L427.6 233.4 L427.1 236 L427.5 237 L426 241.4 L425.1 241.2 L426.5 242.9 L426.7 241.4 L428.8 241.1 L429.1 239.9 L430.8 239.3 L431.4 240.8 L432.3 241.9 L433.6 243.9 L432.9 244.8 L433.3 246.7 L435.7 249.1 L437.9 249.3 L439.8 250.4 L440.9 250 L443.6 248.2 L443.6 247.2 L444.8 246.4 L445.9 246.7 L448 245.4 L450.5 246.6 L451.6 245.9 L452.9 243.5 L453.9 243.2 L455 242 L456.1 238.8 L457 238.6 L456.8 236.7 L457.6 235.7 L455.7 234.5 L454.8 231.6 L455.7 230.4 L455.8 230.3 L458.2 228.9 L459.1 228.3 L460.5 227.7 L462.6 229.8 L463.5 229.6 L465.5 229.6 L465.7 229.5 L467.1 230 L467.2 231.1 L469.7 232.6 L470.8 231.6 L472 231.2 L473.5 230.9 L475.9 228.4 L477.1 228 L479.3 227.6 L481.4 227.9 L482.3 227.4 L483.9 225.3 L484.1 224.3 L486.5 223.3 L488.3 221 L488.8 220 L489.1 220 L491.2 219 L491.9 217.7 L494.3 215.8 L495 216.5 L495.9 215.4 L497 214.4 Z"><title>PI</title></path>
    <path id="uf-PR" d="M382.3 439.5 L381.9 439.4 L381.2 439.8 L379.8 439.3 L379.7 437.8 L380.6 436.3 L380.6 436.1 L380.6 435.7 L380.6 434.5 L379.3 433.2 L379.5 432 L377.4 430.5 L376.9 429 L376.7 429.2 L375.7 427.9 L376.4 427.3 L376.2 425.7 L375.8 425.4 L375.5 423.6 L375.9 422.7 L375.3 421.2 L375.5 420.3 L374.2 418.4 L373 417.6 L372.8 417.5 L372.6 417.3 L370.7 415.8 L370.7 415.8 L369.6 415.1 L368.5 415.6 L367.6 415.8 L365.7 415.7 L365.4 415.2 L363.1 415.5 L362.4 415.1 L361.6 415.1 L359.4 415.7 L359 414.6 L357.6 413.6 L356.9 413.4 L356.6 413.6 L354.2 412.8 L353.7 412.6 L352.5 411.9 L352 411.8 L350.5 411.6 L349.5 412.1 L348 411.7 L348 411.7 L346.7 411.9 L344.9 411.3 L344.4 411.1 L344.2 410.9 L342.5 410.1 L342.4 410.1 L341 409.9 L340.8 410.5 L340.4 411.7 L338.9 411.3 L337.1 411.1 L336.8 411 L335.5 411.1 L334.8 410.4 L332.4 411 L332.1 410.9 L330.2 410.4 L329 410.9 L328.6 411.2 L327.7 411.2 L327.4 411.6 L325.8 412.7 L324.6 413.2 L323.5 413.8 L321.6 414.9 L320.4 416.4 L320.4 418.1 L319.3 420.3 L318.7 421.3 L315.9 422.5 L315 425 L314.7 425.8 L314.3 427.5 L314.2 428.3 L313.1 430.1 L311.5 431.1 L310.7 432.3 L311.8 435.3 L311.3 436 L311 438.3 L310.9 439.2 L310.8 439.7 L310 440.8 L309.1 444.4 L309.6 446 L308.9 446.8 L306.9 450.1 L307.2 452 L309.3 453 L311.3 451.5 L313 451.9 L313.4 451 L315.5 451.9 L317.5 453.4 L317.6 454.5 L317.9 456.4 L317.6 457.2 L319.1 458.2 L319.9 460 L320.2 460.5 L320.4 461.1 L323.2 461.5 L323.2 461.5 L323.2 461.5 L324.4 461 L326.8 462.4 L326.9 462.4 L328.8 462.7 L330 462.6 L330.4 462.6 L332.4 462.5 L333.3 462.5 L334 462.8 L335.2 463.2 L335.7 463.1 L336.8 463.6 L340.7 464 L342.5 465.1 L345.3 465.6 L349.6 465.6 L351 467.5 L351.2 466.7 L353.3 466.2 L353.6 465.8 L352.5 463.4 L352.9 462.9 L353.1 462.4 L353.8 461.7 L355.5 460.7 L356.7 460.8 L358 461.6 L360.7 460.2 L360.8 460.1 L361.7 458.5 L362.5 457.6 L365.3 459.2 L366.7 458.2 L367.7 458.6 L370.4 457.8 L371.3 457.9 L372.2 458.1 L374.6 460.2 L375.8 460.7 L377.4 460.3 L377.4 460.2 L378.2 459.9 L379.1 459.5 L380.9 458 L384.5 457.4 L384.8 457.5 L388.5 457.4 L389.6 457.3 L390.3 455.6 L391.3 453.7 L392.9 451.9 L393.6 450.7 L394.9 450.4 L396.5 448.1 L394.5 443.8 L393.4 444.4 L392.2 443.6 L390.2 445 L389.6 443.9 L390 442.7 L390.4 440.1 L389.6 439.3 L386.7 439.4 L385.3 439.4 Z M320.1 448.7 L320.5 448.6 L320.5 448.6 Z M323.9 419.7 L323.9 419.7 L324 419.7 Z"><title>PR</title></path>
    <path id="uf-RJ" d="M444 415.2 L441.9 416.2 L441.5 418.6 L440.7 419.2 L442.8 421.4 L444.8 421.3 L445.4 420.4 L443.8 419 L442.9 419.2 L443.6 417.1 L445.6 416.8 L448 415.3 L448 416.8 L450.5 416.9 L452.7 415.6 L454.4 415.2 L455.6 415.3 L458.8 417.1 L462.6 416.6 L464.3 415.1 L462.8 413.8 L463.6 412.7 L466 412.2 L466.2 412.6 L466.2 412.9 L465.1 414.4 L465 415.8 L466.3 416.1 L471.4 415.5 L475 415.5 L476.4 415.6 L479.7 415.5 L480.7 414 L480.6 412.7 L480.4 410.9 L480.5 410.4 L482.8 408.4 L484.5 406.8 L486.5 405.9 L492.2 404 L493.9 403 L494.2 401.4 L493.3 397.4 L493 395.8 L494.5 393.1 L492.1 392 L490.2 392.2 L487.5 391.7 L486.3 391.3 L485.1 390.9 L484.1 390.4 L483.9 388.1 L483.8 387.2 L483.3 386.2 L482.4 385.9 L482 385.7 L481.2 386.1 L481.2 386.8 L480.6 388 L478.2 388.6 L479.1 389.2 L479.2 389.3 L478.6 390 L477.9 390.7 L477.6 391.1 L477.5 392 L477.2 393.6 L477 393.6 L476.5 394.8 L476.8 395.6 L475.5 396.9 L475.4 397.1 L476.6 398.7 L475.1 399.2 L473.9 399.7 L473.9 399.7 L471.9 400.6 L471.1 400.9 L467.8 402.5 L466.5 403.1 L464.6 404.1 L464.7 403.1 L464.7 403.1 L463.4 403.1 L462 402.8 L461.8 402.7 L460.5 403.5 L458.4 403.4 L457.3 403.8 L456.8 403.7 L456 403.5 L453.1 404.7 L450.3 405.8 L450.2 406 L449.2 406.3 L447.8 406.2 L446.5 406.2 L445.3 407.2 L443.7 407.9 L443.6 407.8 L441.7 408.1 L441.7 408.2 L441.7 408.2 L443.3 409.8 L443.9 411 L446.4 411.1 L447.8 411.1 L448.1 410.8 L449.7 411 L450.5 411.9 L448.4 414.3 L446 414.3 L444.1 415.1 Z M448 419.4 L450.9 418.7 L449.6 417.6 L447.7 418.7 Z M455.6 417.2 L453.1 417 L453.4 417.6 L455.6 417.3 L457.3 417.1 L457.4 417 Z"><title>RJ</title></path>
    <path id="uf-RN" d="M555.8 188.2 L558 187 L558.6 186.9 L558.8 187.2 L558.6 187.9 L559.6 188.8 L560.3 188.8 L561.4 188.6 L561.4 188.6 L563.2 189.5 L564.5 189.6 L565.7 189.5 L565.8 189.5 L567.3 189 L567.7 189.1 L568.4 189.5 L570.3 189.5 L570.8 189.6 L571.4 189.9 L571.7 190.3 L573.3 190 L573.8 190.4 L574.4 190.4 L574.9 189.8 L576.9 189.5 L576 187.1 L576 186.8 L575.1 185.4 L575.1 184.8 L574.8 182.6 L574.3 181.4 L573.6 179.3 L573.3 177.5 L572.9 176.2 L571.9 174.4 L571.2 172.8 L569.7 171.3 L567.9 170.7 L565.6 170.2 L563.9 169.9 L562.2 169.8 L561.3 170.2 L558.4 170.5 L557.1 170.2 L552.9 170.2 L550.9 168.7 L549.5 168 L547 168.4 L545.9 167.5 L545.5 166.8 L544 167.2 L542.8 167.5 L542.5 167.5 L540.1 168.1 L539.6 169.8 L538.1 172.1 L538.2 172.4 L538.1 173.2 L537.8 173.5 L536.6 176 L534.8 177.7 L534.1 178.4 L534.4 179.5 L533 181.8 L533 182 L531.7 183 L531.4 183.8 L530.5 183.9 L529.6 183.6 L528.8 184.5 L528.1 185.9 L527.4 186.9 L527.5 187.7 L528.9 187.4 L529.1 188.4 L530.5 189.1 L531.2 189.8 L532.1 189.5 L533.6 190 L534.2 189.2 L534.8 189.4 L536.3 188.5 L537.4 187.4 L538.3 186.2 L539.2 185.3 L540.5 185.3 L541.8 184.9 L543.7 184 L545.4 183.2 L546.6 183.5 L546.8 184.9 L545.7 185.8 L544.4 187.1 L543.6 188.2 L543.7 188.9 L542.6 190.2 L542.3 192.6 L544.6 192.3 L545.3 192.9 L545.7 194.2 L546.9 193.8 L547.9 193.2 L548.5 192.9 L548.9 192.6 L549.5 193.6 L550.2 193.3 L551.2 192.9 L552.7 194.3 L552.2 195.4 L553.7 195.6 L554.9 194.9 L555 194.4 L555.2 194.4 L555.4 192.9 L555.5 191.2 L556.7 191.5 L556.1 190 L555.4 189.4 Z"><title>RN</title></path>
    <path id="uf-RO" d="M199.8 280.7 L201.7 281.2 L202.5 280.5 L203.9 281.3 L203.9 282.6 L207 285.1 L208 286.3 L211.3 286 L212.8 286.6 L215.8 285.8 L216.6 286.4 L219.1 286 L220.3 286.6 L220.9 287.5 L223.2 288.5 L224.3 286.9 L227.6 285.3 L227.9 283.4 L228.4 282.6 L229.3 280.1 L230.5 278.6 L231.4 278.5 L232.6 273.8 L233.7 273.5 L236 270 L234.5 268.6 L234.3 266.9 L233.3 265.7 L233.2 264.1 L231.6 263.2 L231.4 259.5 L233.9 257.4 L234.1 256.2 L233.2 254.8 L233.3 253.2 L227.6 252.8 L226.6 251.4 L219.2 251.4 L213.3 251.4 L211.7 251.4 L212.7 248.3 L212.9 243.6 L211.6 242 L211.2 238.7 L211.8 237.8 L212.3 235.9 L211.3 233.9 L212.7 232.7 L211.2 230.4 L210.8 228.6 L210.6 227.6 L212 227.5 L211.6 225.3 L212.8 223 L211.2 221.3 L209.4 219.8 L207.7 220.4 L206.8 222.2 L205.6 222.3 L205.1 221.3 L203.8 221.3 L202.9 218.4 L201.8 218.2 L201.5 219.1 L200.5 217.1 L200.5 215.8 L199.1 215 L198.4 215.6 L197.8 214.2 L196.5 213.5 L196 211.6 L193.6 210 L183.2 210 L183.2 210.7 L181.5 213.2 L180.9 214.9 L179.8 214.3 L178.8 214.9 L178.4 216.9 L179.1 218 L177.5 219.9 L176.1 220.5 L176.1 223.3 L173.7 224 L173.6 223.1 L170.1 223.9 L169.6 224.3 L166.9 223.9 L165.1 225.8 L165.4 227.1 L163.5 229.6 L162.3 230.2 L161.4 227.9 L160.6 227.7 L158.9 228.7 L158.2 228.3 L158.3 230.4 L156.2 229.8 L154.9 230.3 L154.3 231.8 L152.9 231.3 L151 229.7 L148.2 230 L144.9 229.7 L145.2 230.9 L143.7 232.8 L142.2 233.2 L139.4 235.3 L141.9 236.4 L147.6 235.5 L148.5 234.9 L150.8 235.2 L152.1 234.4 L154.6 234.6 L156.7 235.5 L158.2 233.3 L159.4 234 L160.3 236 L159.7 237 L160.3 240.8 L158.9 242.9 L159 243.7 L158.4 244.4 L158.7 246.6 L159.6 247.4 L159.3 248.8 L160.5 249.8 L160.8 251.3 L159.3 253.6 L160.1 258.4 L161.4 258.8 L161.5 261.8 L163 261.3 L163.9 265.2 L166.5 265.4 L168.4 266.7 L168.2 267.7 L169.8 268.2 L171 268.3 L171 270 L172.4 271.4 L174.8 271.5 L178.5 272.6 L179.6 271.4 L182.3 271.5 L185.8 273 L187.6 274.6 L190.5 274 L191.7 276.8 L193.2 277.1 L194.6 279 L196.4 278.6 L197.1 279.6 Z"><title>RO</title></path>
    <path id="uf-RR" d="M175.5 52.5 L176.4 54.6 L175 58 L176 58.9 L177.8 61.8 L178.2 64 L177.2 66 L178.6 66.4 L180.1 66.1 L181.3 66.8 L183.5 66.7 L185.4 67.4 L186.1 66.7 L186.9 67.7 L186.6 70 L188 70.8 L189.9 70.7 L191.4 72.7 L194 72.7 L195.8 73.9 L195.5 77.1 L194.4 78.6 L195.4 79.4 L196.7 80.7 L198.3 85.5 L199 85.5 L199.4 87.3 L199.1 89.8 L198.1 91.1 L198.4 94.3 L199.4 95.2 L199.3 97.6 L199.9 99.4 L201 100.5 L201.1 101.7 L202.2 102.8 L202.1 104.5 L202.9 104.9 L201.1 107.9 L201.6 109.1 L200.6 110.1 L198.8 109.8 L198.5 110.9 L200.1 111.7 L201.9 113.8 L203.8 114.7 L205.3 116.1 L206.9 119.6 L207.7 119.7 L208.3 119.4 L210.9 120.3 L212.7 122.1 L211.8 120.1 L210.7 119.6 L210.6 118.3 L211.8 115 L211.3 113.9 L211.9 110.8 L212.9 109.4 L216 108.1 L216.2 107.3 L220.1 108 L221.8 109.9 L222.5 112.1 L223.8 112.6 L225.6 112.4 L226.1 111.1 L228.7 110.3 L227.6 108 L229.8 102.1 L232.4 96.8 L240.8 96.8 L243.1 96.8 L248.1 96.8 L248.1 83.6 L247.8 82.3 L246 82.3 L243.2 81.4 L242.2 79.6 L241 79.1 L239.4 76.8 L237.2 76.3 L237.6 74.8 L236.5 75 L236.6 73 L236.5 68.9 L235.1 68.5 L233.1 63.6 L233.2 60.2 L234.2 56.3 L235.6 54.3 L235.6 52.2 L234.7 51.5 L237.6 49.4 L239.5 46.5 L237 43.2 L236.7 41.5 L237.4 40.7 L236.6 39.7 L233.4 38.5 L230.8 38.4 L232.6 35.8 L233.4 30.7 L231.7 29.8 L231.1 28.3 L230.1 28 L228.5 28.9 L225 29 L223.4 28.6 L224.9 32.3 L224 33.3 L222.7 35.1 L220 36.5 L219.3 38.4 L217.2 38.8 L215.5 38.1 L214.4 39.7 L213.1 39.4 L212.2 41.1 L211.5 42 L209.1 41.9 L208 43.2 L205.6 43.1 L203.5 44.4 L200.1 43 L197.9 44 L198.2 44.8 L195.4 44.9 L194.7 46.9 L195.5 48.2 L195.2 50 L194.4 49.1 L191.9 50.8 L190.6 49.7 L190.9 48.9 L188.9 48.1 L188.9 46.1 L185.5 46.1 L186.1 46.7 L184.7 47.6 L182.5 45.2 L181.9 46.8 L181.4 46.3 L179 46.5 L178.5 47.3 L176.5 44.3 L175.7 43.7 L172.1 43.6 L170.3 44.1 L167.3 41.5 L166.9 43.1 L171.4 48.5 L174 49.6 L175.3 51.3 Z"><title>RR</title></path>
    <path id="uf-RS" d="M316.1 539.4 L319.2 541.4 L319.8 543.3 L320.3 545.3 L323.1 547.6 L326.7 549.1 L329.2 548.2 L329.6 546.8 L331.9 546.2 L332.9 545.1 L331.6 544.6 L333 542.2 L334.3 542 L333.4 544.4 L334.6 546.4 L334.3 548.8 L332.9 551.5 L331.4 552.6 L329.1 551 L327.4 550.9 L326.7 553.8 L325.6 555.3 L324.7 554.7 L322.7 557.3 L323.3 559.8 L322.2 561.1 L322 563.2 L323.3 564 L324.1 564 L332.2 557.7 L334.3 555.2 L336.1 552 L337.1 548.7 L338.8 544.7 L341.5 542.3 L341.3 539.2 L339.3 538 L339.8 537.1 L340.8 535.9 L342.4 535.9 L342.7 534.5 L342.7 533.2 L344 530.6 L345.5 530.2 L348.1 530 L348 528.4 L349.2 527.9 L350.5 527.5 L349.8 526 L350.4 524.5 L351.5 524.6 L351.4 521.4 L352.2 521.4 L353 519.2 L354.7 518.6 L353.7 516.7 L352.1 515.7 L352.5 513.3 L352.9 513.1 L353.4 515.1 L355.7 516.1 L355.8 518 L357.6 518.6 L357.8 517.1 L361.3 516.5 L361.8 515.3 L362.9 516 L362.3 519.3 L360.3 517.6 L360.9 519.4 L360.9 522.3 L360 523.8 L357.1 524.9 L357.2 526.3 L354.2 528.1 L354.4 530.2 L353.4 532.6 L351.7 533.6 L350.7 533.1 L347.6 536.8 L345.1 537.3 L344.2 538.3 L341.5 537.8 L342.7 539 L341.8 542 L345.2 538.9 L350.7 535.9 L354.1 533.2 L358.8 528.9 L359.8 527.8 L365.8 519.4 L366.9 516.8 L367.3 515.8 L368 513.9 L368.7 512.2 L369.3 511 L369.5 510.6 L370.1 509.4 L371.3 507.4 L371.4 507.2 L373.1 504.9 L374.3 503.3 L373.2 502.8 L371.7 501.8 L370.9 501.6 L368.8 502.4 L369.9 503.6 L369.8 503.7 L368.4 502.5 L368.5 501.5 L370.1 501.3 L370.9 499.8 L371 498.1 L371 497.4 L371.2 495.1 L372.5 494.9 L373.3 493.5 L374.4 493.7 L374.4 493.7 L374.1 492.2 L372.9 491.5 L370.8 491.1 L369.4 491.7 L364.5 491 L361.9 490.5 L360.8 488.8 L360.1 488.5 L358.3 485.7 L356.9 484.4 L356.6 484.6 L355.8 483.5 L355.9 483.3 L352.9 481.5 L352.4 481.2 L350.3 479.7 L349.1 479 L348.7 479.3 L347.9 478.1 L347 477.9 L345.8 478.4 L345.1 478.5 L344.8 477.9 L343.1 476.5 L342.2 476.1 L341.4 476.1 L339.8 475.9 L339.3 474.9 L338.8 475.7 L337.4 475.4 L337.1 475.2 L336.9 474.3 L335.5 474.9 L335.4 474.7 L333.4 475.3 L332.1 474.2 L331.9 474.1 L331.2 473.7 L329.5 474.3 L329.2 473.3 L328.9 472.6 L328.1 472.8 L326.6 474 L324.7 474.2 L325.1 473.2 L324.3 472.9 L322.4 474 L321.6 473.8 L320.9 474 L319.3 473.9 L317.9 473.8 L317.6 473.7 L316.1 473.4 L314.6 475 L313.9 475.5 L312.8 475 L312.4 476.6 L311.5 477.5 L309.7 476.9 L308.9 478 L307.3 477.6 L306.7 478.8 L305.5 479.1 L304.2 478.7 L303 481 L301.7 482.2 L301 483.1 L298.9 483.1 L297.8 484.2 L297 484.6 L296.5 485.6 L295.6 486.3 L291.1 488.4 L292.5 489.8 L292.2 490.8 L290 490 L289.5 491.7 L287.6 492.3 L287.9 493 L285.3 495.7 L283.8 496.2 L283.5 497.8 L282 499.9 L279.8 500.5 L278.8 502.9 L277.2 504.6 L274.6 507.7 L272.4 509.4 L271 509.6 L269.7 511 L269.7 512.2 L267.8 514.1 L266 515 L266.4 516 L268.8 516.7 L271.4 516.5 L272.6 514.1 L276.2 513.8 L278.9 515.3 L280.4 517.5 L281.6 517.8 L282.7 519.5 L283.9 519.9 L285.3 520.9 L285.9 522.3 L287.6 523.4 L287.8 527.4 L289.7 527.3 L292.5 525.7 L293.7 524 L295.7 526.4 L296.8 526.8 L298.3 529.8 L300.6 530.9 L301.2 530.2 L303.9 532.4 L305.8 532.3 L307.3 532.6 L308.9 534.1 L309.2 535.3 L314.2 539.1 Z"><title>RS</title></path>
    <path id="uf-SC" d="M336.8 463.6 L335.7 463.1 L335.2 463.2 L334 462.8 L333.3 462.5 L332.4 462.5 L330.4 462.6 L330 462.6 L328.8 462.7 L326.9 462.4 L326.8 462.4 L324.4 461 L323.2 461.5 L323.2 461.5 L320.4 461.1 L319.7 463.5 L319.7 463.7 L319.2 465 L319.1 465.9 L319.3 467.9 L319.8 469.2 L319.9 469.9 L319.9 470.6 L319.1 471.4 L317.6 473.7 L317.9 473.8 L319.3 473.9 L320.9 474 L321.6 473.8 L322.4 474 L324.3 472.9 L325.1 473.2 L324.7 474.2 L326.6 474 L328.1 472.8 L328.9 472.6 L329.2 473.3 L329.5 474.3 L331.2 473.7 L331.9 474.1 L332.1 474.2 L333.4 475.3 L335.4 474.7 L335.5 474.9 L336.9 474.3 L337.1 475.2 L337.4 475.4 L338.8 475.7 L339.3 474.9 L339.8 475.9 L341.4 476.1 L342.2 476.1 L343.1 476.5 L344.8 477.9 L345.1 478.5 L345.8 478.4 L347 477.9 L347.9 478.1 L348.7 479.3 L349.1 479 L350.3 479.7 L352.4 481.2 L352.9 481.5 L355.9 483.3 L355.8 483.5 L356.6 484.6 L356.9 484.4 L358.3 485.7 L360.1 488.5 L360.8 488.8 L361.9 490.5 L364.5 491 L369.4 491.7 L370.8 491.1 L372.9 491.5 L374.1 492.2 L374.4 493.7 L374.4 493.7 L373.3 493.5 L372.5 494.9 L371.2 495.1 L371 497.4 L371 498.1 L370.9 499.8 L370.1 501.3 L368.5 501.5 L368.4 502.5 L369.8 503.7 L369.9 503.6 L368.8 502.4 L370.9 501.6 L371.7 501.8 L373.2 502.8 L374.3 503.3 L375.2 502.1 L377 500.1 L378.9 498.2 L380.1 497.2 L381.5 496.1 L386 493.5 L387.6 492 L388.1 489.8 L389.1 486.6 L389.3 484.3 L389.8 483.8 L389.9 482.9 L390.7 482.1 L392.7 477.5 L392.1 476.6 L390.6 477 L389.7 475.7 L389.5 474.3 L389.9 474.3 L391 474.1 L390.8 472.9 L389.8 473.3 L389.7 472.2 L389.2 470.8 L389 470.2 L389.3 469 L388.7 468.2 L388.5 467.5 L388.7 465.6 L388.9 465.1 L389.7 463.8 L391.1 460.6 L390 459.9 L389.6 457.3 L388.5 457.4 L384.8 457.5 L384.5 457.4 L380.9 458 L379.1 459.5 L378.2 459.9 L377.4 460.2 L377.4 460.3 L375.8 460.7 L374.6 460.2 L372.2 458.1 L371.3 457.9 L370.4 457.8 L367.7 458.6 L366.7 458.2 L365.3 459.2 L362.5 457.6 L361.7 458.5 L360.8 460.1 L360.7 460.2 L358 461.6 L356.7 460.8 L355.5 460.7 L353.8 461.7 L353.1 462.4 L352.9 462.9 L352.5 463.4 L353.6 465.8 L353.3 466.2 L351.2 466.7 L351 467.5 L349.6 465.6 L345.3 465.6 L342.5 465.1 L340.7 464 Z"><title>SC</title></path>
    <path id="uf-SE" d="M550.1 239.5 L549.7 238.8 L549.7 238.8 L549.6 238.1 L547.1 236.6 L545.8 236.4 L544.9 235.5 L542.5 234.3 L539.9 233.4 L539.8 233.2 L537.4 232 L536.7 231.5 L535.2 231.1 L534.4 232.1 L535.2 236.5 L536.6 236.7 L538.1 238.3 L537.9 239.3 L538.3 239.8 L538.4 240.5 L538.4 241.8 L538.7 242.5 L537.3 243.9 L537.7 244.9 L537.9 246.1 L537.8 247.3 L535.6 248.2 L534.6 247.4 L533.2 247.7 L532.4 247.6 L531.9 248.8 L532.3 250.6 L532.7 250.8 L533.8 251.9 L534.6 254 L535.5 254.3 L535.3 256.3 L535.5 256.3 L537.5 258.2 L538 258.7 L539.7 259.4 L540.3 258.7 L541 259.1 L543.9 257.8 L544.3 257.6 L545.4 255.5 L546.8 253.8 L548.5 251 L551 248 L553.4 246.5 L556 245.2 L557.2 244.6 L556 243.6 L556 243.6 L555 243.5 L554.6 241.9 L554 241.3 L553.3 241.5 L553 241.5 L552.8 241.4 L551.1 240.4 L551 240.3 L550.6 239.8 Z"><title>SE</title></path>
    <path id="uf-SP" d="M415.8 400.4 L416.6 399.5 L416.9 398.2 L417.7 397.9 L418.3 396.7 L418.3 395.6 L416.8 394.8 L416.4 394.1 L414.8 393.9 L414.6 394 L413.2 394.5 L411.4 394.7 L411.6 393.8 L411 392.6 L409.9 391.5 L409.9 391 L409.5 389.4 L409.1 388.3 L408.4 387 L408.4 386.9 L409 385.2 L410.2 384.6 L409.6 383 L409.7 382.9 L409.6 382.6 L408.5 381.9 L407.5 380.9 L407.8 379.2 L408.4 378.3 L408.4 378.2 L407 376.8 L404.8 374.8 L404 375.1 L402.8 375.8 L401.1 375 L399.9 375 L399.6 376.2 L399.2 376.9 L398.1 375.7 L396.8 377.2 L395 375.8 L394.8 376.9 L391.6 376.9 L390.4 377 L388.9 377.5 L387.8 377.3 L386.5 377.4 L385.6 379 L385.9 380.7 L385.6 381.2 L384.6 380.7 L384.3 377.5 L383.2 377.3 L382.4 378.9 L381.6 379.5 L380.5 378.7 L380.4 378.3 L379.9 376.8 L380.7 374.8 L377.9 374.9 L375.7 374.1 L373.8 374.2 L371.6 374.3 L369.7 374 L368.9 373.5 L368 373.5 L365.7 373.4 L364.1 372.2 L362.6 372.6 L361.9 373.3 L360.9 374 L358.8 374.7 L358.2 375.1 L356.6 376.4 L356.6 376.5 L355.1 379 L351.9 380.1 L350.9 381.6 L348.8 383.7 L348.7 383.7 L347.9 385.6 L348 388.2 L346 389.6 L344.5 391.6 L344.8 393.5 L343.4 395.7 L341.5 396.8 L342.1 398.2 L340.7 399.5 L338.5 402.3 L337.5 404.2 L336.6 405.2 L333.9 406.8 L329.8 409.2 L328.1 410.2 L327.7 411.2 L328.6 411.2 L329 410.9 L330.2 410.4 L332.1 410.9 L332.4 411 L334.8 410.4 L335.5 411.1 L336.8 411 L337.1 411.1 L338.9 411.3 L340.4 411.7 L340.8 410.5 L341 409.9 L342.4 410.1 L342.5 410.1 L344.2 410.9 L344.4 411.1 L344.9 411.3 L346.7 411.9 L348 411.7 L348 411.7 L349.5 412.1 L350.5 411.6 L352 411.8 L352.5 411.9 L353.7 412.6 L354.2 412.8 L356.6 413.6 L356.9 413.4 L357.6 413.6 L359 414.6 L359.4 415.7 L361.6 415.1 L362.4 415.1 L363.1 415.5 L365.4 415.2 L365.7 415.7 L367.6 415.8 L368.5 415.6 L369.6 415.1 L370.7 415.8 L370.7 415.8 L372.6 417.3 L372.8 417.5 L373 417.6 L374.2 418.4 L375.5 420.3 L375.3 421.2 L375.9 422.7 L375.5 423.6 L375.8 425.4 L376.2 425.7 L376.4 427.3 L375.7 427.9 L376.7 429.2 L376.9 429 L377.4 430.5 L379.5 432 L379.3 433.2 L380.6 434.5 L380.6 435.7 L380.6 436.1 L380.6 436.3 L379.7 437.8 L379.8 439.3 L381.2 439.8 L381.9 439.4 L382.3 439.5 L385.3 439.4 L386.7 439.4 L389.6 439.3 L390.4 440.1 L390 442.7 L389.6 443.9 L390.2 445 L392.2 443.6 L393.4 444.4 L394.5 443.8 L396.5 448.1 L399 446.1 L399.1 444.6 L401.5 442.2 L405.9 439.4 L410.5 436.3 L413 433.6 L415.6 432.1 L417 431.4 L419.9 430.1 L420.4 429.7 L421.1 430 L422.8 430 L423.5 428.2 L427.5 426.8 L431.4 427.3 L432 428 L433.6 427.5 L433.2 426.1 L433.5 425 L435.2 424.3 L438.1 423.2 L440.3 421 L441.2 421.7 L442.8 421.4 L440.7 419.2 L441.5 418.6 L441.9 416.2 L444 415.2 L444.1 415.1 L446 414.3 L448.4 414.3 L450.5 411.9 L449.7 411 L448.1 410.8 L447.8 411.1 L446.4 411.1 L443.9 411 L443.3 409.8 L441.7 408.2 L441.2 408.5 L439.5 409.2 L437.6 409.4 L437.3 409.5 L436.8 410 L435.3 411.1 L433.5 411.6 L433.3 411.2 L432.4 410.8 L431.1 411.6 L431.1 410.9 L429.9 411.6 L429.7 410.5 L429 411.2 L429.5 411.6 L428 412.8 L429.3 413.2 L428.5 414.1 L427.1 414.6 L425.9 414.3 L424.6 415 L422.7 414.5 L420.6 415.1 L420.2 413.9 L420.7 413.2 L418.8 412.3 L419.9 411.8 L419.5 410.9 L419 409.8 L417.7 409.1 L416.8 408.7 L416.2 407.7 L415.4 406.9 L416 405.6 L416.1 405.1 L416.4 405.1 L417.1 404.5 L415.4 403.8 L416.4 402.8 L416.8 402.6 Z M435.1 428.3 L435.9 427.1 L434.4 426.4 L432.9 429.2 L435.6 428.8 Z"><title>SP</title></path>
    <path id="uf-TO" d="M405.7 188.7 L406.3 186.3 L405.7 183.8 L405.5 183 L405.5 180.9 L405.5 180.5 L405 177.9 L405 177.7 L403.9 175.5 L402.2 174.8 L400.2 174.4 L399.7 173.3 L398.7 172.4 L397.6 172.4 L396.9 172.8 L395.3 172.6 L394.7 172.3 L392.8 171.4 L391.1 171.8 L390.1 172.3 L389.5 173.7 L387.5 173.9 L389.6 174.9 L391.8 174.7 L392.7 174.6 L393.3 175.9 L395.9 177.4 L395.5 178.8 L394 179.1 L393.8 180.6 L394.6 182.1 L393.2 182.9 L393.9 184.2 L392.5 184.9 L391.8 185.6 L392.7 187.6 L391 187.7 L389.2 189.4 L389.1 189.6 L388.7 192 L386.1 193.1 L383.6 194 L382.9 194.4 L381.2 195.6 L381.4 197.1 L381.4 198.4 L381.5 199.3 L380.5 201.6 L378.9 203.4 L379.1 205 L379.4 205.6 L381.9 207.5 L381.8 208.4 L381.7 210.5 L381.1 213.1 L380.2 215.5 L379.3 216.1 L378.6 217.8 L377.5 219.6 L376 221.9 L374.7 222.1 L372.4 224.9 L372.2 225.2 L370.8 227.2 L369.8 228 L369.1 231.4 L367.3 235.6 L366.2 238.3 L364.9 239.9 L364.6 242.7 L363.8 243.4 L362.9 246.2 L362.1 246.9 L362.1 246.9 L362.5 248.1 L361.7 250.6 L362 252.5 L360.7 255.8 L360.2 259 L361.1 259.5 L360.5 261.5 L361.6 263.7 L361 265.2 L361 268.3 L361.5 268.3 L361.8 271.5 L361 274.2 L361.8 276.5 L363.3 277.1 L364.4 274.2 L366.2 272 L368.4 270.7 L367.4 271.9 L367.7 273 L367 273.5 L366.1 276.2 L367.8 277.6 L371.6 278.7 L379 282.8 L379.2 281.2 L380.8 277.4 L382.5 276.1 L384.4 278.4 L385.7 276.5 L385.9 276.3 L389 279.2 L389.9 280.7 L389.9 283.3 L390.7 280.9 L391.5 282.9 L395.9 281.1 L395.5 283.1 L396.8 282.3 L398.3 283.3 L400.6 283.5 L402.2 285.5 L403 284.1 L402.4 282 L403.8 280.6 L406.2 282.6 L413.6 279.9 L415 278.6 L416.6 278.6 L419.1 278.6 L419.2 278.1 L419.6 276.6 L420.3 278.9 L423.8 277.9 L420.8 278.4 L421.4 275.8 L421.2 273.2 L422.6 272.2 L422.6 272.2 L421.6 272.2 L421.3 270.5 L420.2 270.1 L420.2 266.7 L420 266 L421 264.5 L420.1 263.4 L420.7 262.7 L420.1 261.8 L421.1 261 L420.3 260.2 L423.3 260.1 L424.2 260.1 L423.8 259.9 L420.5 258.5 L419.3 258.7 L417.6 256.6 L417.7 255.2 L420.6 250.7 L421.6 250.6 L421.7 249 L422.5 248.8 L423.6 246.3 L427.8 244.1 L428.1 242.2 L429.4 241.4 L429.1 239.9 L428.8 241.1 L426.7 241.4 L426.5 242.9 L425.1 241.2 L425 240.3 L422.6 240.3 L420.8 240.3 L419.2 238.9 L418.8 236.5 L418.3 235 L416.5 234.2 L417.2 232.1 L417.9 231.8 L416.6 229.7 L414.9 229.8 L413.7 228.1 L414 227 L412.6 225.9 L412.4 224.9 L410.6 224.9 L411 224.1 L412.7 222.1 L412.9 218.5 L413.7 217.7 L414.6 215.4 L415.3 215.6 L417.8 214.7 L418.9 211.3 L418.4 210 L416.9 208.9 L414.2 209.7 L411.4 211.1 L409 208.2 L408.2 207.7 L405.7 204.1 L404.7 202.6 L403.4 202.6 L405 201.2 L404.1 200.2 L402.6 200.7 L402.2 200 L401.3 198.8 L402.5 198.7 L404 196.8 L404.4 194.4 L404.7 192.4 L405.2 190.8 L405.7 189.7 Z"><title>TO</title></path>
    </g>
    <rect x="0" y="0" width="620" height="592" fill="url(#mapGlow)" opacity="0.34"/>
  </g>
</svg>
